<svg width="24" height="24" viewBox="0 0 24 24" fill="none" xmlns="http://www.w3.org/2000/svg">
<path d="M13.372 2.09409C10.9801 1.76635 8.55041 2.31471 6.53115 3.638C4.5119 4.96129 3.03935 6.97023 2.38521 9.29415C1.73107 11.6181 1.93947 14.1002 2.97196 16.2825C4.00445 18.4648 5.79136 20.2 8.003 21.1681C7.9429 20.4003 7.9975 19.6278 8.165 18.8761C8.35 18.0371 9.461 13.4131 9.461 13.4131C9.23973 12.9172 9.12917 12.3791 9.137 11.8361C9.137 10.3511 9.994 9.24309 11.06 9.24309C11.2515 9.24031 11.4414 9.27879 11.6167 9.35593C11.792 9.43306 11.9486 9.54704 12.0759 9.69012C12.2033 9.83319 12.2983 10.002 12.3546 10.1851C12.4108 10.3682 12.427 10.5612 12.402 10.7511C12.402 11.6511 11.824 13.0131 11.522 14.2911C11.4623 14.5255 11.4585 14.7706 11.5109 15.0067C11.5634 15.2428 11.6705 15.4633 11.8238 15.6504C11.977 15.8375 12.1721 15.986 12.3932 16.0839C12.6144 16.1818 12.8555 16.2264 13.097 16.2141C14.994 16.2141 16.267 13.7831 16.267 10.9131C16.267 8.71209 14.81 7.06609 12.124 7.06609C11.4815 7.04113 10.8405 7.14699 10.2402 7.37726C9.63979 7.60753 9.09246 7.9574 8.63141 8.40564C8.17037 8.85387 7.80521 9.39112 7.55812 9.98478C7.31102 10.5784 7.18714 11.2161 7.194 11.8591C7.16537 12.5724 7.3955 13.2721 7.842 13.8291C7.92543 13.8914 7.98635 13.9791 8.01557 14.079C8.04479 14.179 8.04073 14.2857 8.004 14.3831C7.958 14.5671 7.842 15.0061 7.796 15.1681C7.7863 15.2226 7.76394 15.2741 7.73074 15.3184C7.69753 15.3627 7.65439 15.3986 7.60479 15.4232C7.55519 15.4478 7.50051 15.4604 7.44514 15.4601C7.38978 15.4597 7.33527 15.4463 7.286 15.4211C5.902 14.8671 5.25 13.3441 5.25 11.6051C5.25 8.75809 7.634 5.35009 12.404 5.35009C16.2 5.35009 18.723 8.12709 18.723 11.0971C18.723 15.0061 16.547 17.9451 13.33 17.9451C12.8492 17.9605 12.3723 17.8543 11.9433 17.6366C11.5144 17.4188 11.1473 17.0963 10.876 16.6991C10.876 16.6991 10.297 19.0151 10.184 19.4531C9.9513 20.2098 9.60792 20.9279 9.165 21.5841C10.088 21.8641 11.047 22.0041 12.011 22.0001C13.3245 22.0011 14.6253 21.7431 15.8389 21.2408C17.0526 20.7384 18.1552 20.0016 19.0837 19.0726C20.0122 18.1435 20.7483 17.0404 21.25 15.8265C21.7516 14.6125 22.0088 13.3116 22.007 11.9981C22.006 9.58292 21.1311 7.24968 19.544 5.42925C17.9568 3.60883 15.7645 2.42418 13.372 2.09409Z" fill="white"/>
</svg>
