<svg width="161" height="51" viewBox="0 0 161 51" fill="none" xmlns="http://www.w3.org/2000/svg">
<g clip-path="url(#clip0_169_47)">
<path d="M84.4316 13.0628C84.4316 14.8647 82.9801 16.3157 81.1787 16.3157C79.3773 16.3157 77.9268 14.8647 77.9268 13.0628C77.9268 11.2608 79.3278 9.80983 81.1787 9.80983C83.031 9.85982 84.4316 11.3113 84.4316 13.0628ZM71.0222 19.6196V20.4206C71.0222 20.4206 69.4717 18.4177 66.1694 18.4177C60.7163 18.4177 56.4627 22.5721 56.4627 28.3275C56.4627 34.0333 60.6663 38.2372 66.1694 38.2372C69.5217 38.2372 71.0222 36.1853 71.0222 36.1853V37.0358C71.0222 37.4363 71.3231 37.7358 71.723 37.7358H75.7751V18.9167H71.723C71.3231 18.9182 71.0222 19.2691 71.0222 19.6196ZM71.0222 31.6809C70.2725 32.7824 68.771 33.7334 66.9701 33.7334C63.7682 33.7334 61.3161 31.7314 61.3161 28.3275C61.3161 24.924 63.7682 22.9221 66.9701 22.9221C68.7215 22.9221 70.3224 23.923 71.0222 24.974V31.6809ZM78.7775 18.9181H83.5803V37.7373H78.7775V18.9181ZM150.525 18.4172C147.223 18.4172 145.671 20.4201 145.671 20.4201V9.85983H140.868V37.7373H144.922C145.322 37.7373 145.621 37.3868 145.621 37.0363V36.1858C145.621 36.1858 147.173 38.2378 150.474 38.2378C155.928 38.2378 160.181 34.0348 160.181 28.329C160.181 22.6231 155.928 18.4172 150.525 18.4172ZM149.724 33.6829C147.873 33.6829 146.422 32.7329 145.671 31.6309V24.924C146.422 23.923 148.023 22.8721 149.724 22.8721C152.926 22.8721 155.378 24.874 155.378 28.2775C155.378 31.6809 152.927 33.6829 149.724 33.6829ZM138.367 26.5765V37.7873H133.564V27.1265C133.564 24.024 132.563 22.7721 129.863 22.7721C128.412 22.7721 126.911 23.5231 125.959 24.6245V37.7378H121.157V18.9187H124.958C125.358 18.9187 125.659 19.2691 125.659 19.6196V20.4206C127.06 18.9686 128.911 18.4177 130.761 18.4177C132.863 18.4177 134.615 19.0191 136.016 20.2201C137.716 21.6216 138.367 23.4231 138.367 26.5765ZM109.497 18.4172C106.196 18.4172 104.645 20.4201 104.645 20.4201V9.85983H99.8417V37.7373H103.894C104.294 37.7373 104.595 37.3868 104.595 37.0363V36.1858C104.595 36.1858 106.146 38.2378 109.447 38.2378C114.901 38.2378 119.154 34.0348 119.154 28.329C119.204 22.6226 114.951 18.4172 109.497 18.4172ZM108.697 33.6829C106.846 33.6829 105.395 32.7329 104.645 31.6309V24.924C105.395 23.923 106.996 22.8721 108.697 22.8721C111.9 22.8721 114.351 24.874 114.351 28.2775C114.351 31.6809 111.9 33.6829 108.697 33.6829ZM95.6887 18.4172C97.1392 18.4172 97.8899 18.6682 97.8899 18.6682V23.1221C97.8899 23.1221 93.8873 21.7706 91.3862 24.624V37.7868H86.5823V18.9181H90.6354C91.0358 18.9181 91.3352 19.2686 91.3352 19.6191V20.4201C92.2368 19.3686 94.1882 18.4172 95.6887 18.4172ZM45.8064 36.0353C45.5565 35.4348 45.3061 34.7843 45.0562 34.2333C44.6553 33.3329 44.255 32.4814 43.9056 31.6809L43.8556 31.6309C40.4028 24.123 36.7011 16.5162 32.7979 9.00935L32.648 8.70835C32.2375 7.9296 31.8374 7.14538 31.4479 6.3559C30.9471 5.45442 30.4473 4.50443 29.6465 3.60295C28.0456 1.60099 25.7439 0.499512 23.2927 0.499512C20.7906 0.499512 18.5394 1.601 16.889 3.50246C16.1382 4.40294 15.5874 5.35393 15.0876 6.25541C14.6971 7.04439 14.297 7.8286 13.8875 8.60785L13.7371 8.90884C9.88439 16.4157 6.13218 24.023 2.67988 31.5304L2.6294 31.6299C2.27953 32.4319 1.87866 33.2824 1.4783 34.1823C1.22839 34.7333 0.978472 35.3338 0.728558 35.9843C0.077784 37.8358 -0.122656 39.5877 0.128257 41.3902C0.678566 45.1441 3.1797 48.2961 6.6325 49.6985C7.93355 50.2495 9.28459 50.4995 10.6851 50.4995C11.0855 50.4995 11.5853 50.4495 11.9862 50.399C13.6376 50.199 15.3385 49.649 16.9899 48.698C19.0412 47.5466 20.9925 45.8956 23.1938 43.4932C25.395 45.8956 27.3963 47.5466 29.3976 48.698C31.0496 49.649 32.75 50.199 34.4009 50.399C34.8012 50.45 35.3021 50.4995 35.7024 50.4995C37.1034 50.4995 38.504 50.2495 39.7545 49.6985C43.2573 48.2961 45.7085 45.0941 46.2593 41.3902C46.6566 39.6387 46.4567 37.8878 45.8064 36.0353ZM23.2423 38.6378C20.5402 35.2343 18.7888 32.0314 18.189 29.3294C17.9391 28.178 17.8886 27.177 18.0391 26.276C18.1385 25.475 18.4394 24.774 18.8398 24.1735C19.7904 22.8231 21.3914 21.9716 23.2428 21.9716C25.0946 21.9716 26.7455 22.7726 27.6462 24.1735C28.0466 24.774 28.3465 25.4755 28.4475 26.276C28.5969 27.1775 28.5469 28.228 28.297 29.3294C27.6947 31.9814 25.9433 35.1848 23.2423 38.6378ZM43.2043 40.9902C42.8545 43.5927 41.1031 45.8456 38.6519 46.8466C37.4513 47.3466 36.1498 47.4971 34.8497 47.3466C33.5992 47.1961 32.3476 46.7956 31.0476 46.0456C29.2462 45.0436 27.4453 43.4931 25.3435 41.1902C28.6454 37.1368 30.6467 33.4324 31.3974 30.1299C31.7478 28.578 31.7983 27.177 31.6474 25.875C31.4479 24.624 30.9971 23.4726 30.2968 22.4716C28.7448 20.2186 26.1427 18.9181 23.2418 18.9181C20.3408 18.9181 17.7387 20.2696 16.1877 22.4716C15.4874 23.4726 15.0366 24.624 14.8367 25.875C14.6367 27.177 14.6862 28.628 15.0866 30.1299C15.8368 33.4324 17.8881 37.1863 21.14 41.2402C19.0887 43.5427 17.2373 45.0946 15.436 46.0956C14.1349 46.8466 12.8848 47.2471 11.6343 47.3966C10.2837 47.5471 8.9822 47.3466 7.8316 46.8966C5.38045 45.8956 3.62905 43.6426 3.27917 41.0402C3.12923 39.7892 3.22869 38.5382 3.72952 37.1368C3.87897 36.6358 4.12988 36.1358 4.37979 35.5353C4.73017 34.7343 5.12953 33.8828 5.53039 33.0324L5.58088 32.9329C9.03269 25.475 12.7349 17.8677 16.5876 10.4608L16.7375 10.1598C17.1384 9.40984 17.5387 8.60885 17.9386 7.85787C18.339 7.05689 18.7888 6.3059 19.3396 5.65491C20.3902 4.45493 21.7908 3.80345 23.3422 3.80345C24.8937 3.80345 26.2942 4.45493 27.3448 5.65491C27.8957 6.3074 28.3455 7.05839 28.7458 7.85787C29.1467 8.60885 29.5471 9.40984 29.9464 10.1598L30.0969 10.4608C33.8908 17.8984 37.5438 25.4071 41.0541 32.9829V33.0329C41.4549 33.8349 41.8048 34.7348 42.2052 35.5368C42.4551 36.1363 42.7055 36.6363 42.8555 37.1373C43.2548 38.4373 43.4048 39.6892 43.2043 40.9902Z" fill="#FF5A5F"/>
</g>
<defs>
<clipPath id="clip0_169_47">
<rect width="160.204" height="50" fill="white" transform="translate(0 0.5)"/>
</clipPath>
</defs>
</svg>
