<svg width="170" height="65" viewBox="0 0 170 65" fill="none" xmlns="http://www.w3.org/2000/svg">
<g clip-path="url(#clip0_49_315)">
<mask id="mask0_49_315" style="mask-type:luminance" maskUnits="userSpaceOnUse" x="4" y="19" width="153" height="27">
<path d="M4.35467 19.8127H156.867V45.7104H4.35467V19.8127Z" fill="white"/>
</mask>
<g mask="url(#mask0_49_315)">
<mask id="mask1_49_315" style="mask-type:luminance" maskUnits="userSpaceOnUse" x="4" y="19" width="153" height="27">
<path d="M4.35467 45.7104H156.867V19.8127H4.35467V45.7104Z" fill="white"/>
</mask>
<g mask="url(#mask1_49_315)">
<path d="M64.1623 22.6473C64.1623 22.0322 64.4065 21.4423 64.8411 21.0073C65.2757 20.5724 65.8652 20.328 66.4799 20.328C67.0945 20.328 67.684 20.5724 68.1186 21.0073C68.5532 21.4423 68.7974 22.0322 68.7974 22.6473C68.775 23.2474 68.521 23.8155 68.0889 24.2322C67.6567 24.6488 67.08 24.8816 66.4799 24.8816C65.8798 24.8816 65.303 24.6488 64.8708 24.2322C64.4387 23.8155 64.1847 23.2474 64.1623 22.6473Z" fill="#273B7D"/>
<path d="M100.728 38.1149C100.728 36.8277 101.764 35.7875 103.041 35.7875C103.657 35.7875 104.249 36.0326 104.684 36.4687C105.12 36.9049 105.365 37.4964 105.365 38.1133C105.365 38.7301 105.12 39.3216 104.684 39.7578C104.249 40.1939 103.657 40.439 103.041 40.439C101.766 40.439 100.728 39.3972 100.728 38.1133" fill="#499FDD"/>
<path d="M26.1278 37.1086C24.133 37.1086 22.745 35.5226 22.745 33.255C22.745 30.9891 24.133 29.4047 26.1294 29.4047C28.1354 29.4047 29.5379 30.9891 29.5379 33.255C29.5379 35.5581 28.1661 37.1086 26.1278 37.1086ZM26.1278 26.0179C21.9058 26.0179 18.841 29.0623 18.841 33.255C18.841 37.4494 21.9075 40.4922 26.1278 40.4922C30.3675 40.4922 33.4435 37.4494 33.4435 33.2566C33.4435 29.0623 30.3659 26.0179 26.1278 26.0179ZM59.674 33.6184C59.5271 33.334 59.3414 33.0715 59.1221 32.8383L58.993 32.7043L59.1286 32.5751C59.3223 32.37 59.5207 32.1277 59.7112 31.8467L63.4393 26.3037H58.914L56.1138 30.6402C55.9556 30.8728 55.6362 30.9891 55.1568 30.9891H54.5193V22.7909C54.5193 21.1516 53.4978 20.9287 52.3955 20.9287H50.5072L50.512 40.279H54.5209V34.4744H54.897C55.3537 34.4744 55.6635 34.5277 55.8072 34.7764L58.0182 38.953C58.6363 40.0868 59.2512 40.279 60.41 40.279H63.4812L61.1928 36.4933L59.6757 33.6184M79.1344 25.9856C77.0945 25.9856 75.7936 26.8932 75.0641 27.6604L74.8221 27.9059L74.7349 27.5716C74.5219 26.7495 73.7989 26.2989 72.7127 26.2989H70.9164L70.9277 40.2742H74.9092V33.8332C74.9092 33.2033 74.9899 32.6574 75.1577 32.1584C75.5999 30.6483 76.8362 29.7099 78.3807 29.7099C79.6234 29.7099 80.1092 30.3673 80.1092 32.0631V38.1503C80.1092 39.5974 80.7789 40.2742 82.2266 40.2742H84.1213L84.1149 31.3848C84.1149 27.8542 82.3929 25.9856 79.1344 25.9856ZM66.5283 26.3037H64.6416L64.6545 37.1102V40.279H66.667L66.7381 40.2822L67.6774 40.279H68.6102V40.2742H68.6166L68.6247 28.4275C68.6247 26.9982 67.9421 26.3053 66.5299 26.3053M41.7647 37.1086C39.7699 37.1086 38.3804 35.5226 38.3804 33.255C38.3804 30.9891 39.77 29.4047 41.7664 29.4047C43.7676 29.4047 45.1749 30.9891 45.1749 33.255C45.1749 35.5581 43.8031 37.1086 41.7664 37.1086H41.7647ZM41.7647 26.0179C37.5395 26.0179 34.4731 29.0623 34.4731 33.255C34.4731 37.4494 37.5396 40.4922 41.7664 40.4922C45.9996 40.4922 49.0821 37.4494 49.0821 33.2566C49.0821 29.0623 45.9996 26.0179 41.7664 26.0179" fill="#273B7D"/>
</g>
</g>
<mask id="mask2_49_315" style="mask-type:luminance" maskUnits="userSpaceOnUse" x="4" y="19" width="153" height="27">
<path d="M4.35467 19.8127H156.867V45.7104H4.35467V19.8127Z" fill="white"/>
</mask>
<g mask="url(#mask2_49_315)">
<mask id="mask3_49_315" style="mask-type:luminance" maskUnits="userSpaceOnUse" x="4" y="20" width="153" height="26">
<path d="M4.35467 20.323H156.835V45.6765H4.35467V20.323Z" fill="white"/>
</mask>
<g mask="url(#mask3_49_315)">
<mask id="mask4_49_315" style="mask-type:luminance" maskUnits="userSpaceOnUse" x="4" y="19" width="153" height="27">
<path d="M4.35467 45.7104H156.867V19.8127H4.35467V45.7104Z" fill="white"/>
</mask>
<g mask="url(#mask4_49_315)">
<path d="M127.099 37.1084C125.104 37.1084 123.713 35.5223 123.713 33.2548C123.713 30.9888 125.104 29.4044 127.099 29.4044C129.104 29.4044 130.509 30.9888 130.509 33.2548C130.509 35.5579 129.138 37.1084 127.099 37.1084ZM127.099 26.0176C122.874 26.0176 119.809 29.062 119.809 33.2548C119.809 37.4491 122.874 40.4919 127.099 40.4919C131.334 40.4919 134.415 37.4491 134.415 33.2564C134.415 29.062 131.332 26.0176 127.099 26.0176Z" fill="#499FDD"/>
<path d="M92.5087 36.4931C90.3316 36.4931 89.5569 34.5938 89.5569 32.8123C89.5569 32.0274 89.7553 29.4707 92.3005 29.4707C93.5641 29.4707 95.2474 29.8325 95.2474 32.9432C95.2474 35.8778 93.7578 36.4931 92.5087 36.4931ZM97.3148 26.2664C96.5595 26.2664 95.9785 26.5684 95.6864 27.1192L95.5767 27.3324L95.3927 27.1709C94.7504 26.6153 93.5981 25.9547 91.7276 25.9547C88.0043 25.9547 85.498 28.7536 85.498 32.9157C85.498 37.0761 88.0915 39.9833 91.8018 39.9833C93.0687 39.9833 94.0709 39.6861 94.8649 39.0853L95.1716 38.8543V39.242C95.1716 41.109 93.966 42.1394 91.7792 42.1394C90.7156 42.1394 89.7489 41.881 89.1002 41.6452C88.2577 41.39 87.7606 41.6016 87.4201 42.4495L87.1038 43.2312L86.6567 44.3747L86.9327 44.5217C88.3335 45.2646 90.1557 45.7087 91.8018 45.7087C95.191 45.7087 99.1514 43.9725 99.1514 39.0853L99.166 26.2664H97.3148Z" fill="#273B7D"/>
</g>
</g>
</g>
<mask id="mask5_49_315" style="mask-type:luminance" maskUnits="userSpaceOnUse" x="4" y="19" width="153" height="27">
<path d="M4.35467 19.8127H156.867V45.7104H4.35467V19.8127Z" fill="white"/>
</mask>
<g mask="url(#mask5_49_315)">
<mask id="mask6_49_315" style="mask-type:luminance" maskUnits="userSpaceOnUse" x="4" y="19" width="153" height="27">
<path d="M4.35467 45.7104H156.867V19.8127H4.35467V45.7104Z" fill="white"/>
</mask>
<g mask="url(#mask6_49_315)">
<path d="M11.3025 36.9486L8.06177 36.9454V33.0692C8.06177 32.2391 8.38294 31.8094 9.09143 31.7093H11.3025C12.8792 31.7093 13.8992 32.7042 13.9008 34.3144C13.8992 35.9683 12.9051 36.947 11.3025 36.947V36.9486ZM8.06177 26.4894V25.4687C8.06177 24.5755 8.43944 24.1507 9.26736 24.0958H10.9265C12.3483 24.0958 13.2004 24.947 13.2004 26.3731C13.2004 27.4584 12.6162 28.7263 10.9781 28.7263H8.06177V26.4894ZM15.4405 30.3591L14.8546 30.0296L15.3662 29.5919C15.9618 29.08 16.9576 27.9284 16.9576 25.9419C16.9576 22.8991 14.6013 20.9351 10.9523 20.9351H6.31391C5.792 20.9542 5.29745 21.1734 4.93269 21.5475C4.56793 21.9215 4.36095 22.4217 4.35467 22.9443V40.2095H11.0345C15.0902 40.2095 17.708 38 17.708 34.5777C17.708 32.7349 16.8624 31.1602 15.4405 30.3591Z" fill="#273B7D"/>
<path d="M152.198 26.0323C151.377 26.0353 150.566 26.2231 149.826 26.5818C149.086 26.9404 148.437 27.4608 147.925 28.1045L147.638 28.4695L147.412 28.0609C146.672 26.7155 145.404 26.0323 143.64 26.0323C141.789 26.0323 140.548 27.066 139.972 27.6797L139.594 28.0883L139.449 27.5505C139.239 26.7752 138.55 26.3505 137.507 26.3505H135.834L135.817 40.2725H139.618V34.1271C139.618 33.5877 139.686 33.0563 139.82 32.4991C140.183 31.0132 141.18 29.4159 142.857 29.5758C143.89 29.6759 144.397 30.4754 144.397 32.0194V40.2725H148.225V34.1271C148.225 33.4536 148.288 32.9497 148.44 32.4458C148.746 31.0278 149.789 29.5742 151.406 29.5742C152.578 29.5742 153.01 30.2364 153.01 32.0194V38.2375C153.01 39.6426 153.636 40.2725 155.042 40.2725H156.83L156.834 31.3847C156.834 27.8331 155.271 26.0323 152.198 26.0323ZM117.606 35.4385C117.595 35.4531 115.96 37.178 113.806 37.178C111.843 37.178 109.861 35.9731 109.861 33.284C109.861 30.9615 111.398 29.3384 113.599 29.3384C114.312 29.3384 115.126 29.5936 115.253 30.0248L115.271 30.0975C115.352 30.3943 115.529 30.6561 115.774 30.8421C116.019 31.0281 116.319 31.128 116.627 31.1263L118.709 31.1295V29.3077C118.709 26.9045 115.653 26.0323 113.599 26.0323C109.203 26.0323 106.014 29.0945 106.014 33.3131C106.014 37.5284 109.167 40.5874 113.518 40.5874C117.292 40.5874 119.344 38.105 119.364 38.0808L119.474 37.9451L117.824 35.2076L117.606 35.4385Z" fill="#499FDD"/>
</g>
</g>
</g>
<defs>
<clipPath id="clip0_49_315">
<rect width="153.189" height="26" fill="white" transform="translate(4 20)"/>
</clipPath>
</defs>
</svg>
