<svg width="170" height="65" viewBox="0 0 170 65" fill="none" xmlns="http://www.w3.org/2000/svg">
<g clip-path="url(#clip0_49_316)">
<path d="M79.9977 45.2009H75.0825C75.0514 45.2009 75.0514 45.2009 75.0359 45.1853L70.8052 39.9955L66.5744 45.1853C66.5589 45.2009 66.5433 45.2009 66.5278 45.2009H62.5926C62.5614 45.2009 62.5459 45.1853 62.5303 45.1697C62.5303 45.154 62.5303 45.1228 62.5459 45.1071L68.7831 37.4163L62.6237 29.8035C62.6081 29.7723 62.6081 29.7566 62.6081 29.7254C62.6237 29.7097 62.6392 29.6941 62.6548 29.6941H67.5699C67.5854 29.6941 67.601 29.7097 67.6165 29.7254L71.334 34.3524L75.1137 29.7254C75.1292 29.7097 75.1448 29.6941 75.1603 29.6941H79.1577C79.1733 29.6941 79.2044 29.7097 79.22 29.7254C79.2355 29.7566 79.22 29.7723 79.2044 29.8035L73.3716 36.8535L80.0599 45.1071C80.0754 45.1228 80.0754 45.154 80.0754 45.1697C80.0443 45.2009 80.0288 45.2009 79.9977 45.2009Z" fill="#072F54"/>
<path d="M106.58 32.4141C104.402 32.4141 102.925 33.7428 102.489 36.0407H109.893V35.8844C109.893 34.0554 108.54 32.4141 106.58 32.4141ZM113.704 38.4167C113.688 38.4324 113.672 38.448 113.657 38.448H102.411C102.645 41.0742 104.34 42.5748 107.093 42.5748C108.788 42.5748 110.593 41.9964 113.128 40.6365C113.175 40.6052 113.221 40.6521 113.221 40.699V44.1693C113.221 44.2005 113.206 44.2162 113.19 44.2162C110.826 45.2166 108.446 45.9044 106.58 45.9044C101.742 45.9044 98.2271 42.356 98.2271 37.4788C98.2271 32.6017 101.742 29.0532 106.58 29.0532C110.997 29.0532 113.828 32.0389 113.828 36.1501C113.828 36.8223 113.719 38.3698 113.704 38.4167Z" fill="#072F54"/>
<path d="M136.537 26.4739C135.153 26.4739 134.033 25.364 134.033 24.0041C134.033 22.5972 135.153 21.4561 136.537 21.4561C137.921 21.4561 139.041 22.5972 139.041 24.0041C139.041 25.364 137.921 26.4739 136.537 26.4739ZM134.515 45.2009C134.468 45.2009 134.453 45.1853 134.453 45.1384V29.741C134.453 29.7097 134.468 29.6784 134.499 29.6784H138.559C138.59 29.6784 138.606 29.7097 138.606 29.741V45.1384C138.606 45.1853 138.575 45.2009 138.544 45.2009H134.515Z" fill="#072F54"/>
<path d="M87.4325 42.8875C86.7015 42.8875 85.9549 42.778 85.0839 42.5592L85.0994 32.6798C86.1104 32.3516 86.9815 32.2109 87.8525 32.2109C90.6678 32.2109 92.5499 34.2899 92.5499 37.4007C92.5499 40.7303 90.5434 42.8875 87.4325 42.8875ZM88.5369 29.0532C87.3859 29.0532 86.2349 29.2564 85.0216 29.6785H80.9776C80.9465 29.6785 80.9153 29.7098 80.9153 29.741V54.9866C82.1286 54.8146 83.6218 54.3769 85.0839 53.3452V45.6699C86.0793 45.8106 86.9037 45.9044 87.697 45.9044C93.2342 45.9044 96.8117 42.5748 96.8117 37.4163C96.8117 32.4922 93.4053 29.0532 88.5369 29.0532Z" fill="#072F54"/>
<path d="M127.127 41.6055C125.867 42.2777 124.731 42.5904 123.674 42.5904C121.17 42.5904 119.661 40.8083 119.661 37.8226C119.661 34.3836 121.574 32.1482 124.545 32.1482C125.369 32.1482 126.162 32.3515 127.127 32.7891V41.6055ZM127.127 21.5342V29.5846C125.945 29.2407 124.903 29.0844 123.845 29.0844C119.023 29.0844 115.399 32.7266 115.399 37.5725C115.399 42.3871 118.603 45.8887 123.02 45.8887C124.545 45.8887 125.976 45.4979 127.656 44.6381V46.0294C128.76 45.8105 130.035 45.3728 131.295 44.4662V19.8772C130.067 20.0491 128.604 20.4712 127.127 21.5342Z" fill="#072F54"/>
<path d="M152.682 41.5744C151.454 42.2778 150.411 42.6217 149.478 42.6217C146.787 42.6217 145.185 40.8397 145.185 37.854C145.185 34.4618 147.083 32.1796 149.898 32.1796C150.645 32.1796 151.562 32.4766 152.682 33.0706V41.5744ZM156.851 29.4909C156.851 29.3971 156.773 29.319 156.68 29.319H153.398C153.304 29.319 153.211 29.3971 153.211 29.4909V30.0537H153.133C151.625 29.3815 150.318 29.0845 149.058 29.0845C144.516 29.0845 140.954 32.8674 140.954 37.7133C140.954 42.6061 144.143 45.8888 148.887 45.8888C150.147 45.8888 151.78 45.795 153.304 44.0442V46.0295C154.378 45.795 155.653 45.3417 156.851 44.4663V29.4909Z" fill="#072F54"/>
<path d="M51.3624 41.3555H61.5504C61.3949 42.4966 61.006 43.841 60.135 45.2009H49.5426C48.2516 45.2009 47.1784 44.1849 47.0539 42.9187C47.0539 42.903 47.0384 42.8874 47.0384 42.8562V22.6597C47.0384 22.6441 47.0539 22.6285 47.0539 22.6128C47.1784 21.331 48.2516 20.3149 49.5426 20.3149H61.5349C61.3793 21.4561 60.9905 22.8317 60.1039 24.1917H51.3624V29.6941H60.0261C60.0572 29.6941 60.0883 29.7253 60.0883 29.7566V33.5708C60.0883 33.6021 60.0572 33.6333 60.0261 33.6333H51.3624V41.3555Z" fill="#072F54"/>
<path d="M38.608 45.5292C37.597 45.5292 36.9748 44.732 36.9748 43.7628C36.9748 42.7311 37.6903 41.9964 38.608 41.9964C39.5102 41.9964 40.2257 42.7155 40.2257 43.7628C40.2257 44.8102 39.5102 45.5292 38.608 45.5292ZM38.608 41.8088C37.5814 41.8088 36.6949 42.5904 36.6949 43.7628C36.6949 44.8727 37.4881 45.7168 38.608 45.7168C39.619 45.7168 40.5056 44.9352 40.5056 43.7628C40.5056 42.5904 39.6346 41.8088 38.608 41.8088Z" fill="#072F54"/>
<path d="M38.1569 43.6064V42.8873H38.6391C38.888 42.8873 39.168 42.9186 39.168 43.2156C39.168 43.5751 38.9035 43.5908 38.608 43.5908C38.5925 43.6064 38.1569 43.6064 38.1569 43.6064ZM39.5102 43.2625C39.5102 42.7935 39.2302 42.5903 38.6702 42.5903H37.7992V44.9039H38.1725V43.919H38.5302L39.1213 44.9039H39.5568L38.9191 43.8878C39.2613 43.8565 39.5102 43.6846 39.5102 43.2625Z" fill="#072F54"/>
<path d="M160.21 32.2421C159.199 32.2421 158.577 31.4449 158.577 30.4757C158.577 29.444 159.293 28.7093 160.21 28.7093C161.113 28.7093 161.828 29.4284 161.828 30.4757C161.828 31.523 161.113 32.2421 160.21 32.2421ZM160.21 28.5374C159.184 28.5374 158.297 29.3189 158.297 30.4913C158.297 31.6012 159.091 32.4453 160.21 32.4453C161.222 32.4453 162.108 31.6637 162.108 30.4913C162.108 29.3033 161.222 28.5374 160.21 28.5374Z" fill="#072F54"/>
<path d="M159.744 30.3193V29.6159H160.226C160.475 29.6159 160.755 29.6471 160.755 29.9441C160.755 30.3037 160.49 30.3193 160.195 30.3193H159.744ZM161.113 29.991C161.113 29.5221 160.833 29.3188 160.273 29.3188H159.402V31.6324H159.775V30.6476H160.133L160.724 31.6324H161.159L160.522 30.6163C160.848 30.585 161.113 30.4131 161.113 29.991Z" fill="#072F54"/>
<path d="M25.4648 24.176L24.7337 22.0813L18.4498 13.6557L19.5697 13.3743L30.3799 22.7691L36.7415 20.9402C37.4881 20.7526 38.3436 20.7057 38.9813 20.7057C36.9904 16.3756 33.3196 12.8116 28.4978 11.0921C18.9631 7.66867 8.46406 12.6865 5.07325 22.2845C4.01557 25.2546 3.78226 28.3184 4.21777 31.2259L19.4453 25.9111L25.4648 24.176Z" fill="#072F54"/>
<path d="M39.6657 22.3628C39.1057 22.7223 38.2814 23.2069 37.4726 23.4727L31.0953 25.3016L26.8491 39.0264L25.7447 39.3859L26.6469 28.9126L26.1491 26.7397L20.1763 28.4592L4.37329 32.164C5.63318 38.2604 9.92613 43.5909 16.1945 45.8263C25.7447 49.2497 36.2282 44.2318 39.6346 34.6338C41.0967 30.5226 41.0034 26.2082 39.6657 22.3628Z" fill="#072F54"/>
<path d="M26.1336 26.7239L26.6313 28.8968L25.7292 39.3701L26.8335 39.0106L31.0798 25.2858L37.457 23.4569C38.2658 23.1911 39.0902 22.7222 39.6502 22.347C39.448 21.7842 39.2302 21.2371 38.9813 20.69C38.3281 20.69 37.4881 20.7213 36.7415 20.9245L30.3799 22.7534L19.5697 13.3586L18.4498 13.64L24.7182 22.0656L25.4492 24.1603L19.4297 25.8954L4.20221 31.2103C4.24887 31.5229 4.31109 31.8512 4.37331 32.1638L20.1608 28.4278L26.1336 26.7239Z" fill="#FBC108"/>
</g>
<defs>
<clipPath id="clip0_49_316">
<rect width="158.108" height="45" fill="white" transform="translate(4 10)"/>
</clipPath>
</defs>
</svg>
