<svg width="171" height="65" viewBox="0 0 171 65" fill="none" xmlns="http://www.w3.org/2000/svg">
<g clip-path="url(#clip0_49_317)">
<path d="M165.372 49.1484C165.372 46.6474 163.598 44.8161 161.154 44.8161C158.714 44.8161 156.939 46.6474 156.939 49.1484C156.939 51.6453 158.714 53.4736 161.154 53.4736C163.598 53.4736 165.372 51.6423 165.372 49.1484ZM160.046 49.3706V52.2003H159.132V45.9606H161.404C162.735 45.9606 163.346 46.5419 163.346 47.6752C163.346 48.3733 162.874 48.9262 162.266 49.0064V49.0327C162.794 49.1169 162.988 49.5877 163.096 50.4491C163.18 51.0071 163.29 51.9751 163.489 52.2023H162.407C162.156 51.6159 162.181 50.7859 161.987 50.091C161.827 49.5624 161.545 49.3696 160.939 49.3696H160.051V49.3726L160.046 49.3706ZM161.179 48.564C162.067 48.564 162.321 48.0912 162.321 47.6742C162.321 47.1811 162.067 46.7915 161.179 46.7915H160.046V48.566H161.179V48.564ZM155.933 49.1484C155.933 46.0671 158.38 43.9841 161.15 43.9841C163.928 43.9841 166.372 46.0671 166.372 49.1484C166.372 52.2236 163.929 54.3086 161.15 54.3086C158.38 54.3086 155.933 52.2236 155.933 49.1484Z" fill="#FF5A00"/>
<path d="M137.852 53.4086L131.837 46.6646L125.876 53.4086H113.331L125.591 39.6365L113.331 25.8604H126.267L132.343 32.5527L138.189 25.8604H150.673L138.473 39.5787L150.843 53.4086H137.852ZM89.2412 53.4086V10.0115H113.331V19.6846H99.445V25.8604H113.331V35.1683H99.445V43.7111H113.331V53.4086H89.2412Z" fill="#FF5A00"/>
<path d="M79.075 10.0115V27.7719H78.9623C76.7125 25.1867 73.9005 24.2858 70.6399 24.2858C63.9585 24.2858 58.9251 28.8301 57.1583 34.8335C55.1429 28.2173 49.9461 24.162 42.2417 24.162C35.9835 24.162 31.0434 26.9694 28.4628 31.5452V25.8594H15.5292V19.6856H29.645V10.0135H4V53.4086H15.5292V35.1683H27.0208C26.6668 36.5709 26.4898 38.0124 26.4941 39.459C26.4941 48.5071 33.4099 54.8655 42.2397 54.8655C49.662 54.8655 54.5574 51.3784 57.1441 45.0301H47.263C45.9275 46.9406 44.9127 47.5047 42.2407 47.5047C39.1436 47.5047 36.4706 44.8018 36.4706 41.6018H56.59C57.4627 48.7902 63.0644 54.9883 70.7526 54.9883C74.0689 54.9883 77.1052 53.3579 78.9613 50.6032H79.0729V53.4147H89.2382V10.0135H79.075V10.0115ZM36.7913 35.2981C37.4336 32.5405 39.5718 30.7386 42.2407 30.7386C45.1796 30.7386 47.2092 32.4847 47.742 35.2981H36.7913ZM72.906 46.8046C69.1604 46.8046 66.8324 43.3154 66.8324 39.671C66.8324 35.775 68.8579 32.0322 72.906 32.0322C77.1062 32.0322 78.7796 35.777 78.7796 39.671C78.7796 43.3621 77.0078 46.8046 72.906 46.8046Z" fill="#29007C"/>
</g>
<defs>
<clipPath id="clip0_49_317">
<rect width="162.371" height="45" fill="white" transform="translate(4 10)"/>
</clipPath>
</defs>
</svg>
