<svg width="170" height="65" viewBox="0 0 170 65" fill="none" xmlns="http://www.w3.org/2000/svg">
<g clip-path="url(#clip0_49_312)">
<path d="M162.73 37.7172C162.235 37.7172 161.833 38.1197 161.833 38.6153C161.833 39.1109 162.235 39.5134 162.73 39.5134C163.225 39.5134 163.627 39.1109 163.627 38.6153C163.627 38.1197 163.225 37.7172 162.73 37.7172ZM162.73 39.371C162.312 39.371 161.975 39.0311 161.975 38.6153C161.975 38.1975 162.314 37.8596 162.73 37.8596C163.147 37.8596 163.487 38.1995 163.487 38.6153C163.487 39.0311 163.147 39.371 162.73 39.371ZM163.022 38.4615C163.022 38.2982 162.906 38.2014 162.735 38.2014H162.449V39.0197H162.589V38.7235H162.743L162.891 39.0197H163.043L162.88 38.6932C162.967 38.6533 163.022 38.5735 163.022 38.4615ZM162.73 38.5963H162.591V38.3248H162.73C162.825 38.3248 162.882 38.3723 162.882 38.4596C162.882 38.5489 162.823 38.5963 162.73 38.5963ZM54.6139 28.6278V26.4557H51.2866V39.3786H54.6139V31.6298C54.6139 30.2266 55.5131 29.5373 56.915 29.5373H58.7361V26.4557H57.1805C55.9627 26.4557 54.9041 27.0917 54.6139 28.6278ZM61.8529 21.3442C60.7147 21.3442 59.842 22.2443 59.842 23.3835C59.842 24.4962 60.7147 25.3962 61.8529 25.3962C62.9911 25.3962 63.8637 24.4962 63.8637 23.3835C63.8637 22.2442 62.9911 21.3442 61.8529 21.3442ZM60.193 39.3786H63.5128V26.4557H60.193V39.3786ZM79.3261 32.9171C79.3261 36.6064 76.3384 39.597 72.6525 39.597C71.1652 39.597 69.8165 39.109 68.7351 38.2849V43.1724H65.4154V26.4557H68.7351V27.5493C69.8165 26.7253 71.1652 26.2373 72.6525 26.2373C76.3384 26.2373 79.3261 29.2279 79.3261 32.9171ZM75.9855 32.9171C75.9855 30.914 74.3617 29.2886 72.3604 29.2886C70.359 29.2886 68.7352 30.914 68.7352 32.9171C68.7352 34.9203 70.359 36.5456 72.3604 36.5456C74.3617 36.5456 75.9855 34.9222 75.9855 32.9171ZM137.025 31.7836L135.089 31.2519C133.814 30.9196 133.319 30.5285 133.319 29.8544C133.319 29.1975 134.017 28.738 135.015 28.738C135.965 28.738 136.711 29.3608 136.711 30.1582V30.2322H139.77V30.1582C139.77 27.8132 137.86 26.2373 135.015 26.2373C132.198 26.2373 130.151 27.8113 130.151 29.9816C130.151 31.6696 131.268 32.9417 133.218 33.4696L135.073 33.9766C136.483 34.3677 137.006 34.8007 137.006 35.5773C137.006 36.3956 136.25 36.9463 135.123 36.9463C133.948 36.9463 133.157 36.2019 133.157 35.0969V35.0228H129.91V35.0969C129.91 37.7475 132.042 39.6007 135.096 39.6007C138.038 39.6007 140.174 37.7912 140.174 35.3C140.174 34.0772 139.628 32.4785 137.025 31.7836ZM91.1028 26.4557H94.4225V39.3786H91.1028V38.2849C90.0215 39.109 88.6727 39.5969 87.1854 39.5969C83.4996 39.5969 80.5118 36.6064 80.5118 32.9171C80.5118 29.2278 83.4996 26.2373 87.1854 26.2373C88.6727 26.2373 90.0215 26.7252 91.1028 27.5493V26.4557ZM91.1028 32.9171C91.1028 30.912 89.4789 29.2886 87.4776 29.2886C85.4762 29.2886 83.8524 30.914 83.8524 32.9171C83.8524 34.9203 85.4762 36.5456 87.4776 36.5456C89.4808 36.5456 91.1028 34.9222 91.1028 32.9171ZM106.41 21.8569H109.729V39.3805H106.41V38.2868C105.328 39.1109 103.98 39.5988 102.492 39.5988C98.8065 39.5988 95.8187 36.6083 95.8187 32.919C95.8187 29.2297 98.8064 26.2392 102.492 26.2392C103.98 26.2392 105.328 26.7271 106.41 27.5512V21.8569ZM106.41 32.9171C106.41 30.914 104.786 29.2886 102.784 29.2886C100.783 29.2886 99.1593 30.914 99.1593 32.9171C99.1593 34.9203 100.781 36.5456 102.784 36.5456C104.786 36.5456 106.41 34.9222 106.41 32.9171ZM125.143 39.3786H128.462V26.4557H125.143V39.3786ZM126.802 21.3442C125.664 21.3442 124.792 22.2443 124.792 23.3835C124.792 24.4962 125.664 25.3962 126.802 25.3962C127.941 25.3962 128.813 24.4962 128.813 23.3835C128.813 22.2442 127.941 21.3442 126.802 21.3442ZM154.523 32.9171C154.523 36.6064 151.536 39.597 147.85 39.597C144.164 39.597 141.176 36.6064 141.176 32.9171C141.176 29.2278 144.164 26.2373 147.85 26.2373C151.536 26.2373 154.523 29.2279 154.523 32.9171ZM151.475 32.9171C151.475 30.914 149.851 29.2886 147.85 29.2886C145.848 29.2886 144.225 30.914 144.225 32.9171C144.225 34.9203 145.846 36.5456 147.85 36.5456C149.851 36.5456 151.475 34.9222 151.475 32.9171ZM52.9141 21.8569H40.1796V24.8209H44.8936V39.3786H48.202V24.8209H52.9161V21.8569H52.9141ZM117.316 35.8393L114.362 26.4557H110.875L115.305 39.3786H119.3L123.756 26.4557H120.269L117.316 35.8393ZM159.387 28.6278V26.4557H156.06V39.3786H159.387V31.6298C159.387 30.2266 160.286 29.5373 161.688 29.5373H163.509V26.4557H161.954C160.736 26.4557 159.679 27.0917 159.387 28.6278Z" fill="black"/>
<path d="M20.9782 48.9938C30.3549 48.9938 37.9563 41.3854 37.9563 31.9999C37.9563 22.6145 30.3549 15.0061 20.9782 15.0061C11.6014 15.0061 4 22.6145 4 31.9999C4 41.3854 11.6014 48.9938 20.9782 48.9938Z" fill="#34E0A1"/>
<path d="M31.4648 28.6848L33.5135 26.4537H28.9702C26.6957 24.8986 23.9488 23.9929 20.9781 23.9929C18.0112 23.9929 15.2719 24.9006 13.0012 26.4537H8.44652L10.4953 28.6848C9.23949 29.8316 8.45223 31.4835 8.45223 33.3177C8.45223 36.7792 11.256 39.5855 14.7143 39.5855C16.3571 39.5855 17.8538 38.9513 18.9711 37.9146L20.9782 40.102L22.9852 37.9165C24.1025 38.9532 25.5973 39.5855 27.2402 39.5855C30.6984 39.5855 33.506 36.7792 33.506 33.3177C33.5078 31.4816 32.7206 29.8297 31.4648 28.6848ZM14.7161 37.5595C12.3752 37.5595 10.4782 35.6608 10.4782 33.3177C10.4782 30.9747 12.3752 29.0759 14.7161 29.0759C17.057 29.0759 18.954 30.9747 18.954 33.3177C18.954 35.6608 17.057 37.5595 14.7161 37.5595ZM20.98 33.1943C20.98 30.4031 18.9521 28.0069 16.2755 26.9835C17.7229 26.3777 19.3107 26.0417 20.9781 26.0417C22.6456 26.0417 24.2352 26.3777 25.6827 26.9835C23.0079 28.0088 20.98 30.4032 20.98 33.1943ZM27.2421 37.5595C24.9011 37.5595 23.0041 35.6608 23.0041 33.3177C23.0041 30.9747 24.9011 29.0759 27.2421 29.0759C29.583 29.0759 31.4799 30.9747 31.4799 33.3177C31.4799 35.6608 29.5829 37.5595 27.2421 37.5595ZM27.2421 31.0924C26.0147 31.0924 25.0206 32.0873 25.0206 33.3158C25.0206 34.5443 26.0147 35.5393 27.2421 35.5393C28.4694 35.5393 29.4634 34.5443 29.4634 33.3158C29.4634 32.0892 28.4694 31.0924 27.2421 31.0924ZM16.9375 33.3177C16.9375 34.5462 15.9435 35.5412 14.7161 35.5412C13.4888 35.5412 12.4947 34.5462 12.4947 33.3177C12.4947 32.0892 13.4888 31.0943 14.7161 31.0943C15.9435 31.0924 16.9375 32.0892 16.9375 33.3177Z" fill="black"/>
</g>
<defs>
<clipPath id="clip0_49_312">
<rect width="159.627" height="34" fill="white" transform="translate(4 15)"/>
</clipPath>
</defs>
</svg>
