<svg width="48" height="48" viewBox="0 0 48 48" fill="none" xmlns="http://www.w3.org/2000/svg">
<path d="M36.5 6.5C36.8625 6.50002 37.2127 6.63129 37.4859 6.86953C37.759 7.10778 37.9367 7.43689 37.986 7.796L38 8V40C37.9999 40.38 37.8555 40.7459 37.5961 41.0236C37.3366 41.3013 36.9814 41.4701 36.6022 41.4961C36.2231 41.522 35.8482 41.403 35.5534 41.1631C35.2586 40.9233 35.0658 40.5805 35.014 40.204L35 40V30H30.5C30.1375 30 29.7873 29.8687 29.5141 29.6305C29.241 29.3922 29.0633 29.0631 29.014 28.704L29 28.5V14C29 12.0109 29.7902 10.1032 31.1967 8.6967C32.6032 7.29018 34.5109 6.5 36.5 6.5ZM24.5 6.5C24.8625 6.50002 25.2127 6.63129 25.4859 6.86953C25.759 7.10778 25.9367 7.43689 25.986 7.796L26 8V16C26 19.906 23.2 23.156 19.5 23.86V40C19.4999 40.38 19.3555 40.7459 19.0961 41.0236C18.8366 41.3013 18.4814 41.4701 18.1022 41.4961C17.7231 41.522 17.3482 41.403 17.0534 41.1631C16.7586 40.9233 16.5658 40.5805 16.514 40.204L16.5 40V23.86C14.7415 23.5238 13.1466 22.6077 11.97 21.2583C10.7935 19.9088 10.1034 18.2039 10.01 16.416L10 16V8C10.0001 7.61995 10.1445 7.25412 10.4039 6.97642C10.6634 6.69872 11.0186 6.52985 11.3978 6.50395C11.7769 6.47804 12.1518 6.59703 12.4466 6.83686C12.7414 7.0767 12.9342 7.4195 12.986 7.796L13 8V16C13 18.24 14.472 20.134 16.5 20.772V8C16.5001 7.61995 16.6445 7.25412 16.9039 6.97642C17.1634 6.69872 17.5186 6.52985 17.8978 6.50395C18.2769 6.47804 18.6518 6.59703 18.9466 6.83686C19.2414 7.0767 19.4342 7.4195 19.486 7.796L19.5 8V20.77C20.4544 20.4692 21.2967 19.8892 21.9181 19.1049C22.5395 18.3205 22.9115 17.3679 22.986 16.37L23 16V8C23 7.60218 23.158 7.22064 23.4393 6.93934C23.7206 6.65804 24.1022 6.5 24.5 6.5ZM35 27V9.756C34.1778 10.047 33.4578 10.5704 32.9274 11.2627C32.397 11.955 32.079 12.7864 32.012 13.656L32 14V27H35Z" fill="#122B27"/>
</svg>
