<svg width="316" height="204" viewBox="0 0 316 204" fill="none" xmlns="http://www.w3.org/2000/svg">
<g clip-path="url(#clip0_36_58)">
<path d="M299.167 62.1075C289.071 66.2788 304.18 74.2409 304.18 74.2409C304.18 74.2409 309.262 57.9371 299.167 62.1075ZM302.338 69.7818C300.455 70.56 298.297 69.6663 297.52 67.7864C296.744 65.9065 297.639 63.7514 299.525 62.9723C301.41 62.1932 303.566 63.0878 304.343 64.9677C305.119 66.8476 304.222 69.0036 302.338 69.7818Z" fill="#122B27"/>
<path d="M299.716 63.4363C298.088 64.1089 297.314 65.9693 297.984 67.5921C298.655 69.215 300.517 69.9883 302.146 69.3156C303.774 68.6429 304.546 66.7835 303.875 65.1584C303.203 63.5334 301.342 62.7645 299.716 63.4363ZM301.95 68.8429C300.586 69.4065 299.021 68.7601 298.459 67.3987C297.896 66.0372 298.546 64.4756 299.913 63.9111C301.279 63.3467 302.842 63.9939 303.404 65.3554C303.967 66.7168 303.317 68.2784 301.95 68.8429Z" fill="#122B27"/>
<path d="M306.305 76.1375C306.566 76.7692 306.265 77.493 305.632 77.7545C304.999 78.016 304.275 77.716 304.014 77.0843C303.753 76.4526 304.054 75.7288 304.687 75.4673C305.32 75.2058 306.044 75.5058 306.305 76.1375Z" fill="#0E241C"/>
<path d="M32.5018 184.263C33.6778 184.32 34.795 183.747 35.4329 182.761L41.9539 172.695C42.4059 171.995 43.1955 171.587 44.0262 171.619L48.5995 171.798C49.7394 171.842 50.8735 171.631 51.9196 171.176L52.5995 170.88C53.1415 170.645 53.1795 169.89 52.6627 169.604L52.0157 169.244C51.0207 168.691 49.9116 168.369 48.7732 168.304L44.2052 168.039C43.3725 167.99 42.6287 167.507 42.2495 166.768L36.7656 156.117C36.2266 155.072 35.1729 154.396 33.9991 154.338C36.2198 158.964 37.3326 164.663 37.7283 167.037C37.783 167.361 37.5196 167.651 37.1919 167.631L36.9917 166.658C36.895 166.183 36.4471 165.866 35.965 165.93L34.6731 166.099C34.4988 166.122 34.3353 166.202 34.213 166.327C34.0828 166.457 33.9118 166.538 33.7305 166.557L33.2646 166.604L33.777 166.719C33.9374 166.755 34.0794 166.839 34.1903 166.959L34.3744 167.163L34.676 167.485L33.7074 167.428C33.0844 167.393 32.461 167.436 31.8489 167.556L28.7712 168.165L27.7181 164.831C27.4918 164.116 26.8047 163.652 26.0543 163.71L24.9228 163.797L26.459 168.623L25.6019 168.793C25.4624 168.82 25.4522 169.018 25.589 169.059L26.4238 169.311L24.414 173.964L25.5406 174.161C26.2764 174.291 27.0044 173.901 27.3018 173.217L28.7109 169.998L31.6792 170.893C32.2748 171.073 32.8927 171.177 33.5155 171.2L34.4844 171.239L34.1521 171.529L33.9471 171.713C33.826 171.822 33.6737 171.892 33.5113 171.914L32.9889 171.979L33.449 172.072C33.6295 172.107 33.7906 172.206 33.9052 172.348C34.0149 172.483 34.1699 172.58 34.3417 172.619L35.6105 172.913C36.0821 173.022 36.5602 172.75 36.7061 172.287L37.0037 171.338C37.3331 171.35 37.5653 171.664 37.4788 171.98C36.8503 174.306 35.1724 179.867 32.4991 184.256L32.5018 184.263Z" fill="#0E241C"/>
<path d="M66.3928 173.418C66.2662 173.47 66.1243 173.485 65.9824 173.457C65.2074 173.301 64.4269 173.131 63.6596 172.956C63.2786 172.868 63.0426 172.489 63.1306 172.108C63.2187 171.728 63.5989 171.492 63.9799 171.579C64.7367 171.753 65.5057 171.92 66.2663 172.073C66.6481 172.15 66.8971 172.524 66.8174 172.906C66.7682 173.145 66.6032 173.334 66.3937 173.42L66.3928 173.418Z" fill="#0E241C"/>
<path d="M122.177 167.994L122.173 167.996C121.729 168.177 121.283 168.354 120.839 168.527C119.808 168.927 118.755 169.316 117.707 169.681C117.339 169.81 116.934 169.615 116.805 169.247C116.677 168.88 116.88 168.475 117.24 168.346C118.272 167.986 119.31 167.603 120.327 167.208C120.765 167.038 121.204 166.864 121.639 166.687C122.002 166.537 122.414 166.713 122.562 167.076C122.71 167.435 122.535 167.847 122.175 167.995L122.177 167.994ZM126.506 166.073C126.164 166.215 125.763 166.067 125.6 165.729C125.43 165.378 125.576 164.953 125.928 164.785C127.384 164.079 128.771 163.335 130.051 162.574C130.387 162.374 130.821 162.485 131.021 162.821C131.221 163.156 131.109 163.59 130.773 163.79C129.46 164.57 128.038 165.333 126.546 166.057C126.532 166.062 126.519 166.068 126.506 166.073ZM167.256 148.824C165.786 149.429 164.283 149.996 162.788 150.514C162.419 150.641 162.014 150.447 161.887 150.078C161.761 149.71 161.96 149.301 162.326 149.178C163.796 148.668 165.275 148.11 166.718 147.516C167.081 147.366 167.495 147.54 167.642 147.902C167.79 148.262 167.616 148.675 167.256 148.824ZM113.236 171.122C113.215 171.131 113.191 171.141 113.167 171.146C111.651 171.596 110.102 172.014 108.562 172.393C108.182 172.486 107.799 172.254 107.706 171.874C107.613 171.495 107.846 171.113 108.227 171.019C109.744 170.647 111.272 170.233 112.767 169.789C113.143 169.677 113.536 169.892 113.646 170.264C113.75 170.614 113.57 170.982 113.238 171.119L113.236 171.122ZM171.584 146.901C171.24 147.043 170.838 146.893 170.676 146.552C170.508 146.2 170.657 145.776 171.009 145.608C172.415 144.935 173.822 144.214 175.191 143.465C175.535 143.277 175.964 143.401 176.152 143.744C176.339 144.087 176.215 144.516 175.871 144.704C174.482 145.466 173.05 146.201 171.621 146.883C171.61 146.888 171.597 146.893 171.583 146.898L171.584 146.901ZM158.308 151.922C158.282 151.933 158.258 151.942 158.23 151.949C156.7 152.382 155.14 152.777 153.599 153.12C153.217 153.204 152.839 152.965 152.754 152.584C152.67 152.203 152.913 151.825 153.292 151.74C154.808 151.404 156.34 151.016 157.844 150.588C158.221 150.481 158.613 150.699 158.718 151.077C158.816 151.426 158.635 151.786 158.306 151.923L158.308 151.922ZM134.622 161.208C134.329 161.329 133.984 161.242 133.786 160.979C133.553 160.668 133.615 160.224 133.929 159.99C135.207 159.031 136.392 158.016 137.45 156.972C137.727 156.696 138.176 156.7 138.451 156.976C138.726 157.253 138.723 157.703 138.445 157.976C137.341 159.064 136.107 160.122 134.78 161.12C134.73 161.156 134.679 161.187 134.625 161.209L134.622 161.208ZM179.889 142.345C179.575 142.475 179.204 142.363 179.018 142.067C178.812 141.736 178.913 141.3 179.244 141.092C180.57 140.263 181.885 139.391 183.154 138.492C183.474 138.265 183.915 138.341 184.141 138.66C184.368 138.98 184.291 139.419 183.971 139.646C182.68 140.559 181.341 141.449 179.992 142.29C179.957 142.312 179.921 142.329 179.886 142.344L179.889 142.345ZM104.039 173.382C103.996 173.4 103.95 173.414 103.905 173.422C102.35 173.728 100.768 173.999 99.2029 174.23C98.8155 174.288 98.4571 174.02 98.3995 173.634C98.3419 173.247 98.6104 172.888 98.9978 172.83C100.542 172.603 102.1 172.337 103.633 172.035C104.017 171.961 104.39 172.209 104.464 172.592C104.529 172.927 104.345 173.256 104.039 173.382ZM149.063 153.972C149.012 153.992 148.96 154.007 148.903 154.017C148.248 154.122 147.586 154.22 146.931 154.309C145.985 154.438 145.05 154.543 144.155 154.622C143.766 154.658 143.422 154.369 143.387 153.981C143.351 153.593 143.641 153.248 144.03 153.213C144.905 153.134 145.818 153.032 146.745 152.907C147.388 152.82 148.039 152.724 148.681 152.622C149.067 152.56 149.431 152.822 149.493 153.207C149.545 153.538 149.36 153.851 149.064 153.974L149.063 153.972ZM187.624 136.88C187.34 136.997 187.002 136.92 186.8 136.667C186.556 136.362 186.608 135.917 186.913 135.671C188.137 134.696 189.341 133.676 190.496 132.638C190.787 132.377 191.235 132.399 191.496 132.689C191.756 132.979 191.734 133.427 191.443 133.687C190.27 134.743 189.041 135.784 187.795 136.775C187.742 136.818 187.684 136.852 187.625 136.876L187.624 136.88ZM94.6701 174.761C94.6068 174.787 94.5399 174.805 94.4685 174.811C92.8906 174.969 91.292 175.088 89.7133 175.169C89.3233 175.19 88.9896 174.89 88.9714 174.499C88.951 174.11 89.2526 173.776 89.6435 173.757C91.1999 173.678 92.7782 173.559 94.3317 173.404C94.7219 173.365 95.0664 173.649 95.1048 174.038C95.1366 174.357 94.9516 174.645 94.6701 174.761ZM141.311 154.548C141.093 154.638 140.834 154.617 140.627 154.468C140.31 154.24 140.237 153.798 140.467 153.481C141.361 152.239 142.128 150.903 142.744 149.506C142.902 149.147 143.318 148.985 143.677 149.143C144.036 149.301 144.196 149.719 144.039 150.075C143.383 151.56 142.568 152.983 141.617 154.304C141.538 154.416 141.43 154.496 141.312 154.545L141.311 154.548ZM139.632 154.775C139.547 154.81 139.452 154.829 139.355 154.828C137.665 154.815 136.044 154.699 134.54 154.486C134.153 154.432 133.884 154.074 133.939 153.687C133.995 153.302 134.353 153.031 134.741 153.085C136.182 153.29 137.74 153.399 139.365 153.413C139.758 153.417 140.071 153.736 140.066 154.126C140.064 154.418 139.882 154.669 139.629 154.774L139.632 154.775ZM194.663 130.546C194.407 130.652 194.104 130.604 193.896 130.397C193.617 130.124 193.613 129.675 193.888 129.395C194.412 128.863 194.933 128.318 195.438 127.773C195.992 127.177 196.542 126.562 197.074 125.949C197.33 125.655 197.776 125.621 198.074 125.878C198.369 126.134 198.402 126.579 198.146 126.876C197.605 127.5 197.044 128.127 196.48 128.735C195.965 129.289 195.434 129.846 194.901 130.387C194.832 130.456 194.752 130.51 194.667 130.545L194.663 130.546ZM85.2124 175.246C85.1295 175.281 85.0381 175.301 84.9429 175.299C83.3559 175.304 81.7518 175.269 80.1736 175.196C79.7832 175.179 79.4803 174.848 79.5002 174.457C79.518 174.067 79.8511 173.766 80.2415 173.784C81.7964 173.855 83.3764 173.888 84.941 173.885C85.3317 173.884 85.6485 174.199 85.6509 174.588C85.6505 174.884 85.4691 175.138 85.2115 175.244L85.2124 175.246ZM130.307 153.369C130.155 153.432 129.98 153.443 129.811 153.385C128.207 152.844 126.72 152.138 125.392 151.291C125.062 151.081 124.966 150.644 125.177 150.314C125.388 149.985 125.826 149.888 126.156 150.098C127.388 150.885 128.77 151.54 130.266 152.044C130.637 152.169 130.836 152.571 130.708 152.941C130.64 153.142 130.491 153.293 130.307 153.369ZM200.865 123.394C200.64 123.487 200.372 123.462 200.166 123.303C199.853 123.067 199.795 122.622 200.032 122.312C200.977 121.073 201.895 119.788 202.757 118.493C202.976 118.169 203.414 118.079 203.739 118.297C204.064 118.515 204.153 118.952 203.934 119.277C203.054 120.597 202.118 121.907 201.158 123.168C201.078 123.273 200.976 123.348 200.865 123.394ZM75.7551 174.811C75.6525 174.853 75.5357 174.873 75.4159 174.862C73.8329 174.71 72.2402 174.516 70.6801 174.283C70.2937 174.226 70.0277 173.867 70.0845 173.479C70.1422 173.093 70.5024 172.827 70.891 172.883C72.4261 173.111 73.9946 173.302 75.5543 173.453C75.9432 173.491 76.2283 173.835 76.1904 174.226C76.1634 174.494 75.9886 174.714 75.7551 174.811ZM145.088 145.946C144.963 145.998 144.824 146.014 144.683 145.986C144.299 145.91 144.048 145.539 144.125 145.156C144.428 143.613 144.53 142.091 144.426 140.635C144.398 140.246 144.693 139.907 145.082 139.879C145.472 139.851 145.81 140.144 145.838 140.533C145.95 142.114 145.84 143.761 145.514 145.426C145.466 145.668 145.301 145.856 145.089 145.943L145.088 145.946ZM206.122 115.519C205.926 115.6 205.696 115.594 205.498 115.479C205.159 115.285 205.044 114.851 205.239 114.512C206.021 113.164 206.767 111.774 207.461 110.381C207.636 110.031 208.06 109.889 208.411 110.063C208.761 110.237 208.903 110.66 208.728 111.01C208.022 112.429 207.26 113.846 206.464 115.22C206.384 115.36 206.26 115.463 206.122 115.519ZM122.572 148.172C122.284 148.291 121.941 148.208 121.743 147.951C120.927 146.898 120.257 145.747 119.754 144.529C119.626 144.22 119.509 143.906 119.406 143.594C119.284 143.224 119.477 142.825 119.854 142.7C120.224 142.575 120.627 142.776 120.751 143.146C120.844 143.426 120.951 143.711 121.067 143.989C121.521 145.09 122.126 146.133 122.864 147.085C123.104 147.394 123.048 147.838 122.737 148.076C122.687 148.114 122.631 148.148 122.574 148.171L122.572 148.172ZM144.333 136.656C143.973 136.805 143.561 136.636 143.411 136.278C143.015 135.339 142.506 134.461 141.898 133.662C141.618 133.293 141.302 132.936 140.959 132.601C140.68 132.328 140.674 131.88 140.947 131.601C141.219 131.32 141.669 131.315 141.948 131.588C142.341 131.969 142.702 132.38 143.026 132.805C143.704 133.698 144.273 134.68 144.713 135.727C144.865 136.087 144.696 136.501 144.335 136.653L144.33 136.655L144.333 136.656ZM210.338 107.045C210.169 107.115 209.975 107.121 209.793 107.046C209.433 106.896 209.264 106.482 209.414 106.121C210.018 104.683 210.58 103.209 211.084 101.741C211.213 101.372 211.614 101.175 211.983 101.301C212.353 101.429 212.549 101.829 212.423 102.198C211.907 103.694 211.335 105.198 210.719 106.663C210.644 106.842 210.503 106.975 210.334 107.044L210.338 107.045ZM119.71 139.365C119.614 139.405 119.507 139.424 119.398 139.418C119.007 139.393 118.71 139.059 118.736 138.669C118.842 136.947 119.313 135.329 120.135 133.862C120.326 133.521 120.758 133.398 121.098 133.59C121.438 133.781 121.562 134.211 121.37 134.551C120.652 135.832 120.243 137.245 120.148 138.754C120.13 139.034 119.953 139.265 119.71 139.365ZM137.773 130.202C137.607 130.27 137.413 130.276 137.232 130.203C135.862 129.64 134.387 129.293 132.855 129.171C132.464 129.141 132.175 128.799 132.206 128.409C132.236 128.019 132.579 127.729 132.969 127.759C134.65 127.894 136.266 128.274 137.774 128.893C138.134 129.042 138.308 129.455 138.158 129.816C138.082 129.997 137.94 130.13 137.772 130.2L137.773 130.202ZM213.416 98.095C213.276 98.1527 213.118 98.1668 212.96 98.1249C212.584 98.0231 212.36 97.6361 212.461 97.2575C212.871 95.7495 213.228 94.2147 213.529 92.698C213.605 92.3144 213.977 92.0639 214.361 92.1399C214.745 92.2158 214.995 92.5867 214.919 92.9703C214.611 94.5204 214.247 96.0864 213.83 97.6255C213.77 97.8465 213.612 98.0138 213.416 98.095ZM124.171 131.374C123.872 131.497 123.517 131.404 123.323 131.127C123.097 130.808 123.175 130.367 123.493 130.142C124.807 129.214 126.362 128.525 128.043 128.124C128.425 128.033 128.805 128.268 128.895 128.647C128.986 129.027 128.75 129.408 128.371 129.498C126.864 129.858 125.477 130.472 124.309 131.294C124.266 131.325 124.217 131.35 124.169 131.369L124.171 131.374ZM215.249 88.815C215.139 88.8601 215.016 88.8777 214.893 88.8626C214.505 88.8138 214.229 88.4611 214.278 88.0735C214.47 86.5227 214.61 84.9553 214.688 83.4133C214.708 83.0225 215.041 82.7217 215.43 82.742C215.821 82.7614 216.122 83.0936 216.101 83.4822C216.021 85.058 215.882 86.6612 215.683 88.2454C215.651 88.5085 215.477 88.7181 215.25 88.8119L215.249 88.815ZM215.723 79.3747C215.644 79.4072 215.56 79.4266 215.471 79.4277C215.08 79.4389 214.755 79.1293 214.745 78.7406C214.704 77.1689 214.596 75.6019 214.426 74.0834C214.383 73.6956 214.665 73.3446 215.05 73.3002C215.438 73.257 215.788 73.5356 215.833 73.9226C216.009 75.4795 216.12 77.089 216.162 78.7009C216.17 79.0038 215.987 79.2656 215.725 79.3738L215.723 79.3747ZM214.653 69.9884C214.613 70.0047 214.57 70.0174 214.528 70.0271C214.145 70.1088 213.77 69.8632 213.689 69.4811C213.365 67.9369 212.965 66.4242 212.498 64.9849C212.378 64.6138 212.584 64.2151 212.956 64.0946C213.328 63.9742 213.728 64.176 213.847 64.5503C214.328 66.037 214.742 67.6004 215.075 69.1918C215.145 69.5298 214.961 69.8635 214.651 69.9915L214.653 69.9884ZM211.725 61.0153C211.375 61.1596 210.972 61.005 210.811 60.6584C210.151 59.2351 209.405 57.8679 208.592 56.5944C208.382 56.2655 208.48 55.8274 208.81 55.6172C209.139 55.4071 209.578 55.5038 209.788 55.8328C210.635 57.1606 211.412 58.5839 212.095 60.0638C212.26 60.4191 212.104 60.8383 211.75 61.0023C211.741 61.0059 211.732 61.0095 211.721 61.014L211.725 61.0153ZM206.637 53.0797C206.364 53.1925 206.038 53.1259 205.833 52.8893C205.302 52.2796 204.743 51.6869 204.169 51.1259C203.654 50.622 203.107 50.1316 202.541 49.6664C202.24 49.4187 202.198 48.9717 202.447 48.6702C202.695 48.3686 203.143 48.3265 203.444 48.5742C204.04 49.0649 204.618 49.5838 205.161 50.1141C205.762 50.7023 206.348 51.3223 206.903 51.9601C207.159 52.2543 207.127 52.7013 206.832 52.9583C206.772 53.0111 206.707 53.0509 206.639 53.0788L206.637 53.0797ZM160.864 65.5187C160.797 65.5466 160.724 65.5637 160.648 65.5699C160.257 65.6012 159.917 65.3106 159.886 64.9205C159.763 63.3344 159.876 61.686 160.22 60.019C160.299 59.6367 160.673 59.3906 161.058 59.4688C161.44 59.5478 161.686 59.9205 161.608 60.305C161.289 61.8416 161.185 63.3586 161.3 64.8108C161.325 65.1244 161.14 65.4072 160.865 65.5208L160.864 65.5187ZM199.377 47.0847C199.181 47.1659 198.95 47.159 198.752 47.0445C197.428 46.281 196.027 45.6125 194.585 45.0584C194.22 44.9183 194.038 44.5089 194.179 44.1447C194.32 43.7805 194.73 43.5983 195.094 43.7384C196.606 44.3176 198.076 45.0184 199.463 45.8202C199.801 46.0145 199.916 46.4487 199.721 46.7868C199.641 46.927 199.518 47.0292 199.378 47.0869L199.377 47.0847ZM162.685 56.3382C162.508 56.4112 162.301 56.4124 162.115 56.3262C161.761 56.1614 161.607 55.7403 161.773 55.3863C162.453 53.9273 163.298 52.5223 164.283 51.2075C164.516 50.8943 164.96 50.8308 165.274 51.0657C165.587 51.2984 165.651 51.7437 165.415 52.0556C164.487 53.2909 163.694 54.6129 163.056 55.9809C162.977 56.1486 162.843 56.2702 162.684 56.336L162.685 56.3382ZM190.575 43.7031C190.447 43.7563 190.302 43.7725 190.157 43.7409C188.64 43.4162 187.101 43.2105 185.581 43.1349C185.189 43.1155 184.891 42.7824 184.911 42.3917C184.931 42.0009 185.265 41.7022 185.656 41.7216C187.253 41.8037 188.869 42.016 190.456 42.3574C190.838 42.4395 191.082 42.8153 190.997 43.1972C190.946 43.4325 190.783 43.6174 190.575 43.7031ZM168.325 48.8082C168.054 48.92 167.728 48.8556 167.523 48.6242C167.264 48.3309 167.292 47.8858 167.586 47.6266C168.824 46.5339 170.163 45.5827 171.567 44.801C171.911 44.6078 172.341 44.7314 172.531 45.0737C172.721 45.416 172.599 45.846 172.256 46.0362C170.941 46.7682 169.685 47.6597 168.525 48.6871C168.465 48.7399 168.396 48.7837 168.326 48.8125L168.325 48.8082ZM181.16 43.2399C181.101 43.2642 181.039 43.2798 180.974 43.2889C179.438 43.4745 177.923 43.7969 176.476 44.2468C176.103 44.3629 175.705 44.1548 175.589 43.7819C175.474 43.4089 175.689 43.0088 176.056 42.8954C177.586 42.4187 179.185 42.077 180.806 41.8816C181.196 41.8354 181.547 42.1109 181.593 42.5C181.632 42.8231 181.445 43.1196 181.159 43.2377L181.16 43.2399Z" fill="#0E241C"/>
<path d="M163.169 72.1789C162.948 72.27 162.691 72.2464 162.488 72.103C161.889 71.6776 161.241 71.3049 160.561 70.9943C160.206 70.8326 160.05 70.4124 160.212 70.0571C160.363 69.7296 160.73 69.5729 161.064 69.6748C160.964 69.3411 161.127 68.9753 161.455 68.8295C161.813 68.669 162.231 68.8277 162.392 69.1848C162.694 69.8607 163.061 70.5148 163.482 71.1262C163.676 71.4085 163.639 71.7907 163.393 72.03C163.326 72.0961 163.25 72.1456 163.167 72.1798L163.169 72.1789Z" fill="#0E241C"/>
<path d="M256.177 109.76C254.742 110.348 253.276 110.925 251.821 111.473C251.454 111.612 251.046 111.426 250.91 111.061C250.772 110.695 250.956 110.288 251.324 110.151C252.765 109.607 254.22 109.036 255.643 108.453C256.005 108.303 256.419 108.477 256.566 108.839C256.715 109.199 256.541 109.612 256.181 109.761L256.177 109.76ZM260.466 107.932C260.112 108.078 259.704 107.918 259.548 107.566C259.39 107.208 259.553 106.792 259.908 106.632C261.316 106.007 262.735 105.354 264.125 104.691C264.479 104.522 264.901 104.671 265.069 105.023C265.237 105.374 265.088 105.798 264.736 105.966C263.333 106.635 261.904 107.294 260.483 107.925C260.477 107.927 260.472 107.929 260.466 107.932ZM247.457 113.049C247.444 113.054 247.431 113.06 247.418 113.065C245.949 113.573 244.453 114.066 242.971 114.53C242.599 114.648 242.201 114.44 242.083 114.068C241.965 113.696 242.176 113.298 242.547 113.18C244.014 112.719 245.499 112.231 246.955 111.729C247.324 111.602 247.727 111.798 247.856 112.165C247.977 112.521 247.799 112.908 247.457 113.049ZM268.878 103.913C268.542 104.052 268.147 103.914 267.978 103.584C267.799 103.237 267.936 102.81 268.284 102.631C269.654 101.927 271.035 101.194 272.381 100.451C272.725 100.263 273.154 100.387 273.344 100.729C273.532 101.072 273.408 101.501 273.065 101.691C271.705 102.439 270.314 103.179 268.932 103.891C268.915 103.898 268.896 103.908 268.879 103.915L268.878 103.913ZM238.564 115.841C238.538 115.852 238.514 115.862 238.486 115.868C236.992 116.291 235.471 116.698 233.964 117.081C233.584 117.177 233.198 116.948 233.103 116.569C233.008 116.191 233.235 115.806 233.617 115.71C235.111 115.332 236.618 114.929 238.1 114.508C238.477 114.4 238.869 114.618 238.974 114.996C239.072 115.345 238.891 115.706 238.562 115.842L238.564 115.841ZM277.043 99.4152C276.722 99.5478 276.345 99.4279 276.162 99.121C275.964 98.7845 276.077 98.3506 276.414 98.1526C277.743 97.3688 279.075 96.5556 280.375 95.738C280.704 95.5309 281.142 95.6277 281.353 95.9588C281.561 96.2886 281.464 96.7267 281.131 96.9356C279.82 97.763 278.474 98.5816 277.133 99.373C277.104 99.39 277.072 99.4057 277.041 99.4183L277.043 99.4152ZM229.528 118.126C229.491 118.141 229.453 118.154 229.41 118.162C227.89 118.502 226.348 118.822 224.826 119.114C224.443 119.189 224.071 118.937 223.997 118.554C223.923 118.172 224.173 117.8 224.559 117.725C226.066 117.434 227.596 117.116 229.102 116.779C229.484 116.695 229.861 116.935 229.947 117.315C230.024 117.656 229.838 117.992 229.526 118.121L229.528 118.126ZM284.929 94.4459C284.623 94.5721 284.262 94.4714 284.071 94.1882C283.853 93.8651 283.939 93.424 284.263 93.2061C285.543 92.3458 286.825 91.4539 288.072 90.5586C288.387 90.3315 288.833 90.4024 289.061 90.7188C289.289 91.0353 289.216 91.4783 288.899 91.7063C287.641 92.6114 286.346 93.5108 285.054 94.3787C285.014 94.4055 284.972 94.4279 284.929 94.4459ZM220.376 119.895C220.326 119.916 220.273 119.93 220.218 119.94C218.684 120.191 217.126 120.421 215.589 120.628C215.202 120.681 214.844 120.408 214.794 120.021C214.742 119.634 215.015 119.276 215.403 119.226C216.926 119.022 218.471 118.792 219.994 118.543C220.379 118.481 220.742 118.741 220.807 119.127C220.862 119.457 220.676 119.773 220.379 119.896L220.376 119.895ZM292.499 89.0101C292.211 89.1291 291.866 89.0474 291.667 88.788C291.429 88.4782 291.488 88.0332 291.798 87.7952C293.024 86.855 294.247 85.8881 295.436 84.9177C295.737 84.6707 296.185 84.7153 296.432 85.0162C296.68 85.3193 296.634 85.7642 296.332 86.0112C295.133 86.9914 293.896 87.9689 292.658 88.9167C292.607 88.9554 292.553 88.9854 292.496 89.0088L292.499 89.0101ZM211.137 121.131C211.075 121.157 211.009 121.174 210.94 121.182C209.392 121.342 207.822 121.483 206.277 121.596C205.888 121.624 205.548 121.334 205.519 120.943C205.492 120.554 205.785 120.213 206.175 120.185C207.707 120.072 209.261 119.932 210.795 119.773C211.184 119.732 211.531 120.015 211.572 120.403C211.604 120.722 211.42 121.014 211.137 121.131ZM201.844 121.818C201.77 121.849 201.688 121.868 201.603 121.872C200.044 121.94 198.471 121.985 196.924 122.005C196.533 122.011 196.211 121.698 196.206 121.307C196.201 120.917 196.515 120.595 196.906 120.589C198.438 120.568 199.999 120.525 201.542 120.457C201.934 120.44 202.263 120.743 202.278 121.132C202.292 121.437 202.11 121.706 201.841 121.817L201.844 121.818ZM192.528 121.942C192.441 121.978 192.344 121.997 192.244 121.995C190.684 121.967 189.111 121.915 187.564 121.838C187.173 121.818 186.872 121.486 186.893 121.097C186.913 120.707 187.246 120.406 187.637 120.425C189.169 120.501 190.726 120.554 192.27 120.582C192.662 120.588 192.972 120.912 192.964 121.302C192.959 121.593 192.779 121.838 192.526 121.943L192.528 121.942ZM183.223 121.479C183.123 121.52 183.01 121.539 182.895 121.53C181.342 121.402 179.773 121.249 178.236 121.071C177.847 121.027 177.569 120.676 177.613 120.288C177.657 119.9 178.01 119.621 178.398 119.665C179.922 119.839 181.473 119.994 183.011 120.118C183.4 120.151 183.692 120.492 183.658 120.881C183.636 121.155 183.46 121.378 183.222 121.477L183.223 121.479ZM173.968 120.414C173.853 120.462 173.724 120.479 173.593 120.459C172.967 120.366 172.339 120.268 171.714 120.164C170.777 120.011 169.855 119.851 168.974 119.685C168.589 119.614 168.337 119.244 168.408 118.86C168.479 118.476 168.85 118.224 169.235 118.294C170.104 118.458 171.016 118.617 171.942 118.767C172.561 118.869 173.18 118.964 173.801 119.057C174.188 119.114 174.455 119.476 174.397 119.862C174.359 120.117 174.188 120.321 173.965 120.413L173.968 120.414ZM164.816 118.687C164.682 118.742 164.533 118.758 164.382 118.721C162.808 118.348 161.281 117.942 159.842 117.508C159.468 117.395 159.254 117.001 159.368 116.628C159.482 116.254 159.877 116.04 160.251 116.154C161.662 116.578 163.162 116.978 164.71 117.343C165.09 117.434 165.326 117.813 165.236 118.195C165.18 118.424 165.021 118.602 164.816 118.687ZM155.908 115.989C155.747 116.056 155.561 116.064 155.385 115.996C153.873 115.417 152.417 114.782 151.058 114.114C150.708 113.94 150.564 113.518 150.738 113.167C150.911 112.818 151.336 112.673 151.687 112.847C153.008 113.497 154.423 114.114 155.895 114.678C156.26 114.819 156.442 115.228 156.301 115.592C156.228 115.78 156.084 115.921 155.91 115.994L155.908 115.989ZM147.585 111.856C147.378 111.942 147.135 111.928 146.933 111.799C145.574 110.933 144.287 109.988 143.108 108.996C142.81 108.744 142.771 108.299 143.023 107.998C143.274 107.698 143.721 107.661 144.022 107.912C145.156 108.864 146.392 109.771 147.7 110.605C148.029 110.816 148.126 111.253 147.914 111.583C147.834 111.71 147.719 111.801 147.59 111.854L147.585 111.856ZM140.527 105.842C140.252 105.955 139.922 105.885 139.719 105.648C138.684 104.436 137.75 103.133 136.938 101.775C136.738 101.44 136.848 101.007 137.184 100.806C137.521 100.606 137.954 100.715 138.154 101.051C138.923 102.343 139.812 103.579 140.793 104.73C141.047 105.028 141.011 105.473 140.714 105.726C140.656 105.776 140.592 105.815 140.525 105.843L140.527 105.842ZM135.799 97.88C135.799 97.88 135.784 97.8863 135.777 97.889C135.41 98.0278 135.002 97.8422 134.866 97.4774C134.296 95.961 133.876 94.4078 133.618 92.8619C133.554 92.4778 133.817 92.1118 134.202 92.0472C134.589 91.9817 134.952 92.2422 135.017 92.6285C135.261 94.0857 135.656 95.5494 136.194 96.9799C136.329 97.3373 136.153 97.7361 135.8 97.8822L135.799 97.88ZM134.307 88.7596C134.214 88.7984 134.112 88.8176 134.002 88.8119C133.611 88.7925 133.311 88.4625 133.331 88.0717C133.411 86.4547 133.675 84.8614 134.118 83.3294C134.226 82.9534 134.62 82.7372 134.996 82.8444C135.372 82.9515 135.588 83.3443 135.481 83.7203C135.068 85.1456 134.822 86.6345 134.746 88.1397C134.733 88.4231 134.554 88.6578 134.307 88.7596ZM136.888 79.9028C136.689 79.9849 136.456 79.9767 136.257 79.86C135.92 79.6626 135.809 79.2288 136.007 78.8919C136.804 77.5479 137.801 76.269 138.978 75.0916C139.254 74.8142 139.703 74.8124 139.978 75.0889C140.253 75.3653 140.257 75.8127 139.98 76.0879C138.888 77.1815 137.96 78.3681 137.226 79.6098C137.145 79.7478 137.025 79.846 136.888 79.9028ZM156.646 69.8167C156.541 69.86 156.423 69.878 156.304 69.8663C154.877 69.7214 153.375 69.773 151.843 70.0159C151.457 70.0783 151.093 69.8156 151.034 69.4297C150.972 69.0448 151.238 68.6821 151.622 68.6206C153.276 68.3579 154.902 68.3034 156.448 68.4601C156.838 68.5005 157.119 68.8461 157.08 69.2345C157.053 69.5032 156.877 69.7211 156.646 69.8167ZM143.373 73.3242C143.063 73.4522 142.697 73.3458 142.508 73.0543C142.295 72.7263 142.391 72.2891 142.72 72.0767C144.062 71.2083 145.498 70.4722 146.987 69.8901C147.352 69.7469 147.762 69.9272 147.904 70.2894C148.045 70.6493 147.869 71.0533 147.513 71.2003C147.509 71.2021 147.505 71.2039 147.5 71.2057C146.1 71.7561 144.748 72.4474 143.483 73.2633C143.447 73.2861 143.407 73.3076 143.368 73.3238L143.373 73.3242Z" fill="#0E241C"/>
<path d="M299.739 83.0943C299.466 83.207 299.139 83.1404 298.935 82.906C298.678 82.6118 298.709 82.1657 299.004 81.9087C299.594 81.3946 300.184 80.8701 300.762 80.3509C301.052 80.0883 301.501 80.1118 301.761 80.402C302.024 80.6914 302 81.14 301.709 81.4005C301.127 81.9267 300.527 82.4548 299.934 82.9729C299.874 83.0257 299.809 83.0654 299.739 83.0943Z" fill="#0E241C"/>
</g>
<defs>
<clipPath id="clip0_36_58">
<rect width="301.504" height="95.046" fill="white" transform="translate(0.266693 115.524) rotate(-22.4483)"/>
</clipPath>
</defs>
</svg>
