<svg width="393" height="91" viewBox="0 0 393 91" fill="none" xmlns="http://www.w3.org/2000/svg">
<g clip-path="url(#clip0_37_72)">
<path d="M385.558 50.6695C371.322 50.6067 385.482 67.7811 385.482 67.7811C385.482 67.7811 399.791 50.7323 385.558 50.6695ZM385.51 61.4925C382.854 61.4808 380.71 59.3208 380.721 56.6696C380.733 54.0184 382.894 51.8774 385.553 51.8891C388.211 51.9009 390.353 54.0608 390.341 56.7121C390.33 59.3633 388.166 61.5042 385.51 61.4925Z" fill="#122B27"/>
<path d="M385.55 52.5435C383.254 52.5333 381.387 54.3807 381.377 56.6694C381.367 58.9581 383.217 60.825 385.513 60.8351C387.809 60.8452 389.673 58.9978 389.683 56.7061C389.693 54.4143 387.842 52.5536 385.55 52.5435ZM385.516 60.1684C383.593 60.1599 382.036 58.5955 382.045 56.6754C382.053 54.7554 383.62 53.2047 385.547 53.2132C387.473 53.2217 389.027 54.7861 389.018 56.7062C389.01 58.6263 387.443 60.1769 385.516 60.1684Z" fill="#122B27"/>
<path d="M387.083 71.1276C387.079 72.0185 386.353 72.7373 385.461 72.7333C384.568 72.7294 383.848 72.0043 383.852 71.1133C383.856 70.2224 384.582 69.5037 385.475 69.5076C386.367 69.5116 387.087 70.2367 387.083 71.1276Z" fill="#122B27"/>
<path d="M7.57404 88.7527C9.05562 89.1463 10.6362 88.7232 11.7181 87.6373L22.7717 76.5894C23.5383 75.8217 24.6537 75.5164 25.7081 75.7852L31.4871 77.2638C32.9257 77.6327 34.4304 77.6701 35.8904 77.3785L36.836 77.1891C37.5906 77.0358 37.8441 76.0876 37.2647 75.5781L36.5382 74.9421C35.4192 73.9633 34.096 73.2508 32.6606 72.8574L26.9097 71.2714C25.8616 70.9841 25.0466 70.1633 24.7619 69.1175L20.6708 54.0459C20.2711 52.5695 19.1099 51.4154 17.6283 51.0217C19.1998 57.5263 19.0649 65.0894 18.9218 68.2254C18.9015 68.6523 18.4878 68.9516 18.0759 68.8361L18.0816 67.5397C18.0906 66.9099 17.6067 66.3794 16.976 66.3305L15.281 66.194C15.0533 66.1746 14.8223 66.2319 14.6309 66.3601C14.4303 66.4913 14.19 66.5486 13.9531 66.523L13.3472 66.4558L13.9675 66.7443C14.161 66.8342 14.3204 66.9793 14.4273 67.1641L14.6075 67.4752L14.9069 67.9681L13.6867 67.6309C12.9029 67.4154 12.0971 67.2982 11.2847 67.2854L7.19818 67.2213L6.76273 62.6849C6.66854 61.7137 5.91801 60.9331 4.9492 60.8029L3.48213 60.6059L4.12402 67.177L2.98545 67.1597C2.79773 67.1589 2.73202 67.4044 2.89473 67.4942L3.89248 68.0424L0.0681268 73.4202L1.4505 73.9793C2.35057 74.3458 3.38591 74.0462 3.95255 73.2592L6.62476 69.5444L10.1644 71.4955C10.8767 71.8888 11.6355 72.1871 12.4224 72.3902L13.6489 72.7029L13.146 72.9833L12.8344 73.1632C12.6493 73.2699 12.4368 73.3181 12.2245 73.2987L11.5416 73.2404L12.1006 73.4856C12.3187 73.5818 12.4995 73.7485 12.6093 73.964C12.7131 74.1672 12.8847 74.3308 13.0904 74.43L14.629 75.1526C15.2002 75.4224 15.8844 75.2042 16.1946 74.6526L16.8304 73.5218C17.2454 73.6281 17.4557 74.0898 17.2602 74.473C15.8261 77.2654 12.1747 83.8944 7.57093 88.7588L7.57404 88.7527Z" fill="#122B27"/>
<path d="M52.2205 81.9727C52.1436 81.9724 52.0698 81.9628 51.9929 81.944C50.9816 81.6815 49.9704 81.3944 48.9931 81.0921C48.5075 80.9425 48.2328 80.4252 48.3827 79.9374C48.5326 79.4526 49.0508 79.1784 49.5394 79.328C50.4921 79.6241 51.4757 79.9018 52.4593 80.155C52.9542 80.2832 53.2505 80.7852 53.1222 81.2793C53.0126 81.6966 52.636 81.9715 52.2236 81.9696L52.2205 81.9727Z" fill="#122B27"/>
<path d="M70.7274 84.2387C70.2227 84.2365 69.8091 83.8261 69.8082 83.3222C69.8074 82.8123 70.2185 82.3993 70.7263 82.3954C72.7697 82.386 74.8382 82.2938 76.8762 82.1215C77.3841 82.0838 77.8318 82.4544 77.8757 82.9615C77.9197 83.4686 77.5422 83.9155 77.0343 83.9593C74.947 84.1375 72.8262 84.2326 70.7335 84.2418L70.7243 84.2418L70.7274 84.2387ZM64.5028 84.0085C64.4812 84.0084 64.4566 84.0083 64.4351 84.0082C62.3308 83.8422 60.2239 83.5872 58.1728 83.2494C57.6684 83.1673 57.3289 82.6927 57.4112 82.1892C57.4934 81.6858 57.9657 81.3468 58.4732 81.4289C60.472 81.7603 62.5267 82.009 64.5786 82.1686C65.0862 82.2077 65.4658 82.6518 65.4267 83.1585C65.3876 83.6438 64.9828 84.0106 64.5028 84.0085ZM83.1341 83.1752C82.6941 83.1733 82.3046 82.8551 82.2297 82.4062C82.1457 81.9051 82.4833 81.4273 82.9853 81.3435C85.0117 81.0023 87.0386 80.5719 89.0042 80.0644C89.5002 79.9376 90.0005 80.2347 90.1276 80.7268C90.2547 81.2189 89.957 81.7215 89.4641 81.8483C87.4492 82.3678 85.373 82.8103 83.2911 83.1605C83.2388 83.1695 83.1834 83.1724 83.1311 83.1721L83.1341 83.1752ZM95.1898 80.061C94.8113 80.0593 94.4585 79.8243 94.3247 79.4489C94.1545 78.9689 94.403 78.4416 94.8838 78.2716C96.8349 77.5767 98.7464 76.7956 100.566 75.9434C101.028 75.7274 101.578 75.9264 101.795 76.3851C102.011 76.8469 101.812 77.3959 101.352 77.612C99.4775 78.4885 97.5105 79.297 95.5071 80.0071C95.4023 80.0435 95.2976 80.0615 95.1929 80.061L95.1898 80.061ZM346.932 78.8245C346.932 78.8245 346.92 78.8244 346.914 78.8244C344.827 78.7783 342.717 78.6676 340.637 78.5018C340.129 78.4627 339.75 78.0155 339.792 77.5088C339.831 77.0021 340.279 76.6231 340.787 76.6653C342.832 76.8279 344.909 76.9354 346.959 76.9844C347.469 76.9958 347.871 77.4185 347.859 77.9254C347.848 78.4291 347.434 78.8267 346.932 78.8245ZM353.164 78.7905C352.672 78.7884 352.264 78.3964 352.245 77.9017C352.228 77.3916 352.627 76.9664 353.135 76.9502C355.191 76.8794 357.266 76.7503 359.301 76.5596C359.806 76.5157 360.26 76.8864 360.307 77.3935C360.354 77.9006 359.979 78.3506 359.471 78.3975C357.399 78.588 355.291 78.7231 353.198 78.7938C353.186 78.7937 353.173 78.7936 353.161 78.7936L353.164 78.7905ZM334.516 77.8296C334.476 77.8294 334.433 77.8293 334.393 77.8199C332.32 77.5342 330.232 77.184 328.193 76.7787C327.692 76.6782 327.368 76.1944 327.466 75.6941C327.566 75.1938 328.048 74.8702 328.552 74.9677C330.557 75.3636 332.608 75.7076 334.644 75.99C335.148 76.0598 335.503 76.5252 335.433 77.0288C335.37 77.4924 334.971 77.8255 334.516 77.8235L334.516 77.8296ZM365.568 77.6379C365.122 77.6359 364.729 77.3116 364.661 76.8566C364.583 76.3525 364.93 75.8839 365.435 75.8063C367.473 75.4958 369.515 75.1177 371.505 74.6872C372.004 74.5788 372.495 74.8943 372.604 75.3925C372.712 75.8906 372.396 76.3808 371.897 76.4892C369.87 76.9288 367.788 77.3128 365.713 77.6293C365.663 77.6383 365.614 77.6412 365.568 77.641L365.568 77.6379ZM106.452 74.7713C106.141 74.7699 105.837 74.6119 105.663 74.3254C105.4 73.888 105.541 73.3233 105.979 73.0611C107.71 72.0242 109.427 70.8766 111.085 69.655C111.495 69.3527 112.073 69.4382 112.376 69.8481C112.679 70.2581 112.593 70.8353 112.183 71.1376C110.478 72.3958 108.713 73.5739 106.933 74.6413C106.781 74.7297 106.618 74.7751 106.455 74.7743L106.452 74.7713ZM322.294 75.4071C322.217 75.4067 322.14 75.3972 322.063 75.3784C320.028 74.8472 318 74.2514 316.03 73.6037C315.544 73.4449 315.282 72.9245 315.441 72.4398C315.6 71.9551 316.125 71.6933 316.607 71.8521C318.54 72.4873 320.532 73.0737 322.53 73.5955C323.021 73.7237 323.318 74.2288 323.189 74.7198C323.08 75.134 322.703 75.4089 322.294 75.4071ZM310.463 71.5116C310.349 71.5111 310.232 71.4891 310.122 71.4456C308.165 70.6566 306.23 69.8002 304.369 68.8949C303.911 68.6717 303.72 68.1209 303.943 67.6641C304.167 67.2074 304.719 67.0163 305.176 67.2395C307 68.1262 308.895 68.9671 310.812 69.7374C311.285 69.9269 311.514 70.4656 311.324 70.9378C311.178 71.2966 310.829 71.5163 310.463 71.5147L310.463 71.5116ZM116.468 67.3993C116.212 67.3981 115.96 67.2926 115.78 67.089C115.443 66.7066 115.476 66.1261 115.859 65.7868C117.345 64.4754 118.844 63.0442 120.313 61.5361C120.668 61.1721 121.253 61.1624 121.618 61.5173C121.982 61.8722 121.992 62.4559 121.636 62.82C120.137 64.3617 118.604 65.8234 117.081 67.1654C116.905 67.3213 116.683 67.3971 116.465 67.3962L116.468 67.3993ZM299.267 66.0675C299.113 66.0668 298.953 66.0262 298.812 65.9426C297.037 64.9209 295.239 63.807 293.469 62.6318C293.045 62.3504 292.928 61.7784 293.21 61.3526C293.491 60.9299 294.064 60.8126 294.491 61.0941C296.231 62.2477 297.995 63.3399 299.736 64.343C300.178 64.5969 300.329 65.1597 300.075 65.601C299.904 65.8983 299.59 66.0628 299.27 66.0614L299.267 66.0675ZM125.173 58.5038C124.961 58.5029 124.749 58.4282 124.574 58.28C124.188 57.9465 124.144 57.3656 124.475 56.98C125.749 55.5018 127.033 53.9376 128.401 52.2017C128.717 51.8006 129.296 51.7325 129.698 52.0477C130.099 52.3628 130.168 52.9407 129.852 53.3417C128.468 55.099 127.166 56.6847 125.873 58.1843C125.69 58.3986 125.428 58.5049 125.17 58.5038L125.173 58.5038ZM288.886 59.2046C288.695 59.2037 288.502 59.1445 288.339 59.0209C286.732 57.8218 285.073 56.5211 283.404 55.1558C283.009 54.8315 282.953 54.2506 283.278 53.8588C283.6 53.467 284.182 53.4081 284.577 53.7325C286.221 55.0792 287.858 56.3614 289.444 57.545C289.852 57.8509 289.936 58.4258 289.632 58.8361C289.45 59.0811 289.169 59.2089 288.889 59.2076L288.886 59.2046ZM279.245 51.3311C279.03 51.3301 278.812 51.2554 278.64 51.1011C277.178 49.8135 275.664 48.4428 274.005 46.9086C273.632 46.5629 273.609 45.9791 273.956 45.6058C274.302 45.2325 274.887 45.2105 275.261 45.5563C276.907 47.0812 278.409 48.4426 279.859 49.7209C280.242 50.0575 280.276 50.6413 279.939 51.0208C279.757 51.2289 279.501 51.3322 279.242 51.3311L279.245 51.3311ZM132.9 48.7439C132.71 48.743 132.519 48.6838 132.356 48.5633C131.945 48.2604 131.862 47.6824 132.165 47.2752C133.434 45.5635 134.679 43.8516 135.834 42.2592C136.131 41.8457 136.71 41.7531 137.124 42.0529C137.539 42.3496 137.631 42.9276 137.331 43.341C136.173 44.9396 134.925 46.6576 133.65 48.3754C133.467 48.6204 133.187 48.7482 132.903 48.7469L132.9 48.7439ZM270.093 42.8822C269.866 42.8812 269.638 42.7973 269.461 42.6275C268.357 41.5781 267.257 40.5226 266.16 39.4701L264.962 38.322C264.594 37.9701 264.581 37.3864 264.934 37.0193C265.286 36.6522 265.871 36.6394 266.239 36.9912L267.44 38.1394C268.537 39.1918 269.637 40.2443 270.737 41.2937C271.105 41.6455 271.121 42.2293 270.769 42.5964C270.586 42.7861 270.343 42.8833 270.096 42.8822L270.093 42.8822ZM140.229 38.6749C140.041 38.6741 139.854 38.618 139.691 38.4974C139.28 38.1976 139.19 37.6197 139.491 37.2093C140.122 36.3457 140.757 35.4822 141.395 34.6279C142.014 33.7981 142.633 32.9805 143.233 32.2028C143.546 31.7987 144.125 31.7244 144.53 32.0365C144.935 32.3486 145.009 32.9265 144.696 33.3306C144.102 34.0991 143.489 34.9044 142.876 35.7281C142.242 36.5794 141.61 37.4368 140.982 38.2973C140.799 38.5453 140.518 38.6762 140.232 38.6749L140.229 38.6749ZM261.081 34.2834C260.856 34.2824 260.629 34.1985 260.451 34.0318C258.793 32.4699 257.3 31.0901 255.89 29.8151C255.513 29.4724 255.485 28.8916 255.825 28.5122C256.168 28.1358 256.75 28.1077 257.13 28.4473C258.546 29.7316 260.048 31.1176 261.715 32.6887C262.086 33.0375 262.102 33.6212 261.753 33.9914C261.57 34.1842 261.324 34.2814 261.077 34.2803L261.081 34.2834ZM147.871 28.847C147.661 28.8461 147.452 28.7745 147.281 28.6293C146.891 28.302 146.842 27.718 147.173 27.3293C148.562 25.6888 149.969 24.1159 151.354 22.6504C151.703 22.2803 152.288 22.2644 152.659 22.6132C153.03 22.962 153.046 23.5458 152.696 23.916C151.333 25.3569 149.95 26.9053 148.583 28.5183C148.4 28.7357 148.138 28.8451 147.874 28.8439L147.871 28.847ZM251.83 25.9416C251.62 25.9407 251.408 25.8691 251.234 25.7209C250.998 25.5201 250.761 25.3194 250.522 25.1186C249.186 23.9945 247.809 22.8886 246.432 21.8287C246.027 21.5197 245.952 20.9388 246.262 20.5377C246.574 20.1335 247.153 20.0593 247.558 20.3683C248.96 21.4436 250.355 22.568 251.713 23.7107C251.956 23.9145 252.195 24.1153 252.434 24.3222C252.82 24.6526 252.867 25.2334 252.536 25.6221C252.353 25.8364 252.091 25.9458 251.83 25.9447L251.83 25.9416ZM156.438 19.8219C156.192 19.8208 155.946 19.7214 155.765 19.5271C155.419 19.1538 155.44 18.5702 155.814 18.2247C157.384 16.7693 158.993 15.3878 160.59 14.1199C160.988 13.8052 161.57 13.8692 161.888 14.2669C162.206 14.6646 162.139 15.245 161.741 15.5627C160.181 16.8001 158.609 18.151 157.073 19.5728C156.894 19.7379 156.666 19.8198 156.441 19.8189L156.438 19.8219ZM241.948 18.3589C241.769 18.3581 241.588 18.3051 241.431 18.1969C239.722 17.025 237.973 15.896 236.236 14.8468C235.8 14.5838 235.661 14.0148 235.925 13.5797C236.188 13.1446 236.758 13.0058 237.194 13.2689C238.959 14.3366 240.739 15.4842 242.475 16.6777C242.895 16.9653 243.001 17.5402 242.713 17.9599C242.533 18.2202 242.243 18.3602 241.948 18.3589ZM166.203 12.1139C165.904 12.1126 165.613 11.9669 165.435 11.6989C165.154 11.2737 165.273 10.7028 165.699 10.422C167.483 9.25018 169.316 8.17072 171.142 7.22026C171.596 6.98263 172.152 7.1602 172.387 7.60977C172.622 8.05934 172.447 8.6177 171.997 8.85227C170.223 9.77839 168.446 10.8243 166.711 11.9626C166.554 12.0663 166.375 12.1147 166.2 12.1139L166.203 12.1139ZM231.282 11.9156C231.137 11.915 230.993 11.8806 230.858 11.8093C229.016 10.8427 227.149 9.93736 225.303 9.12124C224.836 8.91334 224.626 8.36864 224.834 7.90567C225.042 7.43962 225.588 7.23004 226.052 7.43793C227.931 8.27263 229.838 9.19347 231.714 10.1787C232.166 10.4142 232.339 10.9741 232.103 11.4216C231.938 11.7373 231.614 11.9171 231.282 11.9156ZM219.893 6.88234C219.792 6.8819 219.687 6.863 219.586 6.82876C217.628 6.12582 215.652 5.50574 213.713 4.98106C213.221 4.84679 212.931 4.34167 213.062 3.85071C213.197 3.35975 213.703 3.07013 214.195 3.20133C216.18 3.7385 218.202 4.37415 220.209 5.09267C220.688 5.26375 220.938 5.79326 220.767 6.27177C220.63 6.64904 220.275 6.88403 219.893 6.88234ZM177.233 6.38078C176.864 6.37915 176.517 6.15642 176.377 5.79329C176.191 5.31936 176.428 4.78585 176.902 4.60054C178.872 3.83197 180.897 3.17425 182.924 2.64249C183.417 2.51256 183.924 2.80665 184.051 3.29876C184.181 3.79088 183.886 4.29648 183.393 4.42334C181.437 4.93698 179.477 5.57348 177.575 6.3147C177.464 6.35722 177.35 6.37822 177.236 6.37772L177.233 6.38078ZM207.872 3.64962C207.819 3.64939 207.767 3.64609 207.712 3.63663C205.676 3.27435 203.624 3.01338 201.622 2.85708C201.114 2.81797 200.734 2.37391 200.774 1.86718C200.813 1.36044 201.245 0.981401 201.765 1.02056C203.829 1.1802 205.936 1.45063 208.033 1.8224C208.535 1.91063 208.871 2.3883 208.783 2.89174C208.704 3.33993 208.312 3.65463 207.872 3.65269L207.872 3.64962ZM189.255 3.22648C188.806 3.2245 188.41 2.89403 188.348 2.436C188.276 1.93185 188.626 1.46643 189.131 1.39492C191.2 1.09991 193.324 0.921879 195.442 0.863633C195.451 0.863674 195.463 0.863728 195.473 0.863769C195.968 0.865955 196.376 1.26099 196.392 1.75875C196.405 2.26879 196.006 2.69099 195.495 2.70717C193.448 2.76572 191.395 2.93792 189.39 3.22093C189.344 3.22687 189.301 3.22976 189.255 3.22955L189.255 3.22648Z" fill="#122B27"/>
<path d="M377.785 74.979C377.385 74.9772 377.017 74.7145 376.901 74.3115C376.762 73.8224 377.044 73.3106 377.534 73.1714C378.511 72.8931 379.491 72.5933 380.449 72.2872C380.933 72.1296 381.455 72.3961 381.61 72.8822C381.768 73.3652 381.501 73.8863 381.014 74.0409C380.037 74.356 379.039 74.6589 378.04 74.9432C377.954 74.9674 377.868 74.9793 377.782 74.979L377.785 74.979Z" fill="#122B27"/>
</g>
<defs>
<clipPath id="clip0_37_72">
<rect width="391.713" height="88.8583" fill="white" transform="translate(0.392029) rotate(0.252771)"/>
</clipPath>
</defs>
</svg>
