<svg width="48" height="48" viewBox="0 0 48 48" fill="none" xmlns="http://www.w3.org/2000/svg">
<path d="M1.38 13.994C7.77819 8.81068 15.7657 5.98786 24 6.00004C32.57 6.00004 40.44 8.99404 46.62 13.994L44.108 17.106C38.4204 12.4982 31.3199 9.98891 24 10C16.38 10 9.388 12.66 3.892 17.106L1.38 13.994ZM7.662 21.774C12.2832 18.03 18.0525 15.9911 24 16C29.9472 15.9912 35.7162 18.0293 40.338 21.772L37.824 24.884C33.9137 21.7167 29.0322 19.9921 24 20C18.764 20 13.954 21.83 10.176 24.884L7.662 21.774ZM13.946 29.554C16.7896 27.2497 20.3399 25.9947 24 26C27.808 26 31.306 27.33 34.054 29.552L31.54 32.664C29.4072 30.9365 26.7447 29.9958 24 30C21.144 30 18.52 30.998 16.46 32.664L13.946 29.554ZM20.23 37.334C21.2962 36.4696 22.6274 35.9986 24 36C25.428 36 26.74 36.5 27.77 37.332L24 42L20.23 37.334Z" fill="#122B27"/>
</svg>
